<?xml version="1.0" encoding="utf-8"?>
<!-- Generator: Adobe Illustrator 22.1.0, SVG Export Plug-In . SVG Version: 6.00 Build 0)  -->
<svg version="1.1" id="Calque_1" xmlns="http://www.w3.org/2000/svg" xmlns:xlink="http://www.w3.org/1999/xlink" x="0px" y="0px"
	 viewBox="0 0 267.1 216.6" style="enable-background:new 0 0 267.1 216.6;" xml:space="preserve">
<style type="text/css">
	.st0{fill:#FFFFFF;}
	.st1{fill:#000091;}
	.st2{fill:#E1000F;}
	.st3{fill:#9C9B9B;}
</style>
<title>RF</title>
<g id="Fond">
	<rect class="st0" width="267.1" height="217.1"/>
</g>
<g id="Calque_1_1_">
	<path id="Devise_Républicaine" d="M100.6,181.4c0.5,0,1,0.5,0.8,1.6l-2.7,0.6C99.1,182.4,99.9,181.4,100.6,181.4 M102,185.8h-0.5
		c-0.7,0.7-1.4,1.4-2.1,1.4s-1.1-0.5-1.1-1.4c0-0.4,0-0.8,0.1-1.2l4.3-1.4c0.9-2-0.1-2.9-1.3-2.9s-4.4,3.4-4.4,6.4
		c0,1.3,0.7,2.1,1.6,2.1S101,187.6,102,185.8 M101.2,179.5l3-2.8v-0.4h-1.6l-1.9,3.2H101.2z M91.9,181.5h1.4l-2.3,6.2
		c-0.2,0.4,0,0.9,0.4,1c0.1,0,0.1,0,0.2,0.1c1.8-0.3,3.4-1.4,4.2-3.1h-0.5c-0.7,0.8-1.6,1.4-2.6,1.6l2.1-5.8h2.1l0.3-0.9h-2.1
		l0.8-2.2h-0.8l-1.5,2.2l-1.7,0.2V181.5z M89.9,181.2c0.2-0.6-0.2-0.9-0.5-0.9c-1.5,0.2-2.8,1.2-3.3,2.7h0.4c0.4-0.6,1-1.1,1.7-1.3
		l-2.4,6.2c-0.1,0.4,0.1,0.8,0.5,0.9c0,0,0.1,0,0.1,0c1.1,0,2.5-1.2,3.1-2.7h-0.4c-0.4,0.6-1,1-1.7,1.3L89.9,181.2z M90.4,178.1
		c0.6-0.1,1-0.5,1-1.1c0-0.5-0.5-1-1-1c-0.6,0-1,0.4-1.1,1C89.3,177.6,89.8,178.1,90.4,178.1C90.4,178.1,90.4,178.1,90.4,178.1
		 M76.6,187.6c-0.2,0.4-0.1,0.9,0.3,1.1c0.1,0.1,0.3,0.1,0.4,0.1c0.5,0,0.6-0.1,0.8-0.6l1.7-4.4c0.8-0.9,1.8-1.6,2.9-1.9
		c0.5,0,0.4,0.4,0.1,0.9l-2.5,4.9c-0.2,0.3-0.1,0.8,0.2,1c0.1,0.1,0.3,0.1,0.4,0.1c1.5-0.2,2.8-1.3,3.3-2.7h-0.4
		c-0.4,0.6-1,1-1.7,1.3l2.2-4.4c0.2-0.5,0.4-1,0.4-1.5c0.1-0.6-0.4-1.1-1-1.2c-0.1,0-0.1,0-0.2,0c-1,0-2.1,1.2-3.4,2.7v-1.2
		c0-0.8-0.3-1.5-1-1.5c-0.6,0.1-1.1,0.5-1.4,1l0,0c0.8,0,1.2,1.2,0.6,2.5L76.6,187.6z M76.6,182.2c0.3-1,0.1-1.9-0.6-1.9
		s-1.2,0.7-2.1,2.7v-1.2c0-0.8-0.3-1.5-1-1.5s-1.7,1.3-2.3,2.7H71c0.4-0.6,0.8-1,1.1-1s0.6,0.6,0,1.9l-1.7,3.7
		c-0.2,0.4-0.1,0.9,0.3,1.1c0.1,0.1,0.3,0.1,0.4,0.1c0.5,0,0.6-0.1,0.8-0.6l1.7-4.4c0.4-0.6,0.9-1.1,1.4-1.6L76.6,182.2z M67,181.4
		c0.6,0,1.1,0.5,0.9,1.6l-2.7,0.6C65.6,182.4,66.4,181.4,67,181.4 M68.5,185.8H68c-0.7,0.7-1.4,1.4-2.1,1.4s-1.1-0.5-1.1-1.4
		c0-0.4,0-0.8,0.1-1.2l4.3-1.4c0.9-2-0.1-2.9-1.3-2.9s-4.4,3.4-4.4,6.4c0,1.3,0.6,2.1,1.6,2.1S67.5,187.6,68.5,185.8 M58.4,181.5
		h1.4l-2.3,6.2c-0.2,0.4,0,0.9,0.4,1c0.1,0,0.1,0,0.2,0.1c1.8-0.2,3.4-1.4,4.1-3.1h-0.4c-0.7,0.8-1.6,1.4-2.6,1.6l2.1-5.8h2.1
		l0.3-0.9h-2.1l0.8-2.2h-0.8l-1.5,2.2l-1.7,0.2L58.4,181.5z M50.5,186.3c0-1.9,2.1-4.5,3.3-4.5h0.7l-1.2,3.3c-0.7,0.9-1.8,2-2.3,2
		S50.5,186.8,50.5,186.3 M57,179.8h-0.6l-0.7,0.7h-0.2c-3.6,0-6.6,4-6.6,6.9c-0.1,0.7,0.4,1.2,1.1,1.3c0.1,0,0.1,0,0.2,0
		c0.9,0,1.8-1.3,2.8-2.7v0.4c-0.1,1.5,0.4,2.3,1.1,2.3s1.7-1.4,2.3-2.7H56c-0.4,0.6-0.8,0.9-1.1,0.9s-0.6-0.6,0-1.8L57,179.8z
		 M49.5,182.1c0.3-1,0.1-1.9-0.7-1.9s-1.1,0.7-2.1,2.7v-1.2c0-0.8-0.2-1.5-1-1.5s-1.6,1.3-2.2,2.7h0.4c0.4-0.6,0.8-1,1.1-1
		s0.6,0.6,0,1.9l-1.7,3.7c-0.3,0.7,0,1.2,0.7,1.2s0.6-0.1,0.8-0.6l1.6-4.4c0.4-0.6,0.9-1.1,1.5-1.6L49.5,182.1z M37.5,188.3l0.2-0.4
		c-2.1-0.4-2.3-0.4-1.5-2.7L37,183h2.3c1,0,1.1,0.4,0.9,1.5h0.6l1.4-3.7h-0.6c-0.5,0.9-0.9,1.5-2.1,1.5h-2.2l1.2-3.3
		c0.3-1,0.6-1.2,2-1.2h1c1.4,0,1.6,0.4,1.6,1.8h0.6l0.4-2.5h-8.6v0.5c1.7,0.3,1.8,0.5,1,2.6l-1.8,5.1c-0.8,2.2-1.1,2.3-3.1,2.7v0.4
		L37.5,188.3z M79.7,162c0.6,0,1.1,0.4,0.8,1.5l-2.7,0.6C78.3,162.9,79.1,162,79.7,162 M81.2,166.3h-0.6c-0.4,0.8-1.2,1.3-2.1,1.4
		c-0.7,0-1.1-0.4-1.1-1.4c0-0.4,0.1-0.8,0.2-1.2l4.3-1.4c0.8-2-0.2-2.9-1.4-2.9s-4.3,3.4-4.3,6.4c0,1.4,0.6,2.1,1.6,2.1
		S80.2,168.2,81.2,166.3 M80.3,160l3.1-2.8v-0.3h-1.7l-1.9,3.1L80.3,160z M71,162h1.4l-2.2,6.2c-0.2,0.6,0,1.1,0.6,1.1
		c1.8-0.2,3.3-1.4,4.1-3h-0.4c-0.7,0.7-1.6,1.3-2.6,1.6l2-5.9h2.2l0.2-0.9h-2l0.8-2.2h-0.9l-1.4,2.2l-1.8,0.3L71,162z M69.1,161.7
		c0.1-0.6-0.2-0.9-0.5-0.9c-1.6,0.2-2.9,1.2-3.4,2.7h0.4c0.4-0.7,1.1-1.1,1.8-1.3l-2.4,6.2c-0.2,0.6,0.2,0.9,0.5,0.9
		c1.5-0.2,2.7-1.3,3.2-2.7h-0.4c-0.4,0.7-1.1,1.1-1.8,1.3L69.1,161.7z M69.5,158.6c0.5,0.1,0.9-0.3,1-0.8c0-0.1,0-0.1,0-0.2
		c0-0.6-0.4-1-1-1s-1,0.4-1,1c-0.1,0.5,0.3,0.9,0.8,1C69.4,158.6,69.4,158.6,69.5,158.6 M61.2,167.9l4.4-11.4h-0.2l-2.7,0.3v0.3
		l0.5,0.4c0.5,0.4,0.4,0.7-0.1,1.9l-3.4,8.9c-0.2,0.4,0,0.9,0.4,1c0.1,0,0.1,0,0.2,0.1c1.5-0.2,2.8-1.2,3.2-2.7h-0.4
		c-0.4,0.7-1.1,1.1-1.9,1.3 M53,167c0-2,2.1-4.6,3.3-4.6H57l-1.2,3.4c-0.7,0.8-1.8,1.9-2.4,1.9s-0.4-0.3-0.4-0.8 M59.5,160.5h-0.6
		l-0.8,0.7H58c-3.6,0-6.6,4-6.6,6.9c-0.1,0.7,0.4,1.2,1.1,1.3c0,0,0.1,0,0.1,0c1,0,1.9-1.3,2.9-2.7v0.5c-0.1,1.4,0.3,2.2,1.1,2.2
		s1.6-1.4,2.3-2.7h-0.4c-0.5,0.6-0.9,1-1.2,1s-0.5-0.6,0-1.9L59.5,160.5z M43.7,170.8c0-0.8,0.8-1.3,1.9-1.8l1.7,0.6
		c1.2,0.4,1.6,0.6,1.6,1s-1.3,1.3-3,1.3S43.7,171.6,43.7,170.8 M46.9,165.8c-0.5,0-0.7-0.5-0.7-1s0.7-3.4,1.9-3.4s0.7,0.4,0.7,0.9
		S48.1,165.8,46.9,165.8 M50.3,170c0-1-0.9-1.3-2.4-1.8s-1.8-0.4-1.8-0.8c0-0.5,0.3-0.9,0.8-1c1.9-0.1,3.3-1.6,3.4-3.5
		c0-0.3-0.1-0.6-0.2-0.9h1.7l0.3-0.9h-2.7l-1.1-0.3c-1.9,0-3.5,1.6-3.6,3.5c-0.1,1,0.6,1.8,1.6,2c-1,0.5-1.5,1-1.5,1.6
		c0,0.3,0.1,0.7,0.4,0.9c-2.3,0.7-3.3,1.4-3.3,2.5s1.4,1.6,3.1,1.6S50.3,171.3,50.3,170 M39.4,163.4c1,0,1,0.4,0.9,1.5h0.6l1.3-3.7
		h-0.6c-0.5,0.8-0.9,1.5-2,1.5h-2.3l1.2-3.1c0.3-1.1,0.6-1.3,2-1.3h1c1.4,0,1.6,0.4,1.6,1.9h0.6l0.4-2.6h-8.6v0.5
		c1.7,0.3,1.8,0.5,1,2.6l-1.8,5.1c-0.8,2.2-1.1,2.4-3.1,2.7v0.5H41l1.7-2.7H42c-1.1,1.2-2.7,1.9-4.4,2c-2.5,0-2.3-0.1-1.4-2.5
		l0.9-2.4H39.4z M40.6,156.8l3.1-2v-0.4h-1.9l-1.7,2.4H40.6z M78.7,142.5c0.6,0,1.1,0.4,0.8,1.5l-2.7,0.7
		C77.3,143.4,78.1,142.5,78.7,142.5 M80.2,146.8h-0.6c-0.5,0.8-1.2,1.3-2.1,1.4c-0.7,0-1.1-0.4-1.1-1.4s0.1-0.8,0.1-1.2l4.4-1.4
		c0.8-2-0.2-2.9-1.4-2.9s-4.4,3.5-4.4,6.4s0.7,2.1,1.7,2.1S79.2,148.7,80.2,146.8 M79.3,140.5l3-2.8v-0.3h-1.6l-1.9,3.1H79.3z
		 M70.4,142.5h1.1l-2.3,6.3c-0.2,0.3,0,0.8,0.3,0.9c0.1,0.1,0.2,0.1,0.4,0.1c1.8-0.3,3.3-1.4,4.1-3h-0.4c-0.7,0.8-1.7,1.3-2.7,1.6
		l2.1-5.9h2.2l0.2-0.8h-2l0.7-2.3h-0.8l-1.5,2.3l-1.4,0.2L70.4,142.5z M69.3,143.2c0.3-1,0.1-1.9-0.7-1.9s-1.1,0.7-2.1,2.8v-1.2
		c0-0.8-0.2-1.6-1-1.6s-1.7,1.4-2.3,2.7h0.4c0.5-0.6,0.9-0.9,1.2-0.9c0.3,0,0.5,0.5,0,1.8l-1.7,3.8c-0.3,0.7,0,1.1,0.7,1.1
		c0.4,0.1,0.7-0.2,0.8-0.5l1.6-4.4l1.4-1.7L69.3,143.2z M59.7,142.5c0.6,0,1.1,0.4,0.8,1.5l-2.7,0.7
		C58.3,143.4,59.1,142.5,59.7,142.5 M61.2,146.8h-0.6c-0.4,0.8-1.2,1.3-2.1,1.4c-0.7,0-1.1-0.4-1.1-1.4c0-0.4,0.1-0.8,0.2-1.2
		l4.3-1.4c0.8-2-0.2-2.9-1.4-2.9s-4.3,3.5-4.3,6.4s0.6,2.1,1.6,2.1S60.2,148.7,61.2,146.8 M50.6,148.6c-0.4,0-1-0.4-1-0.8
		s0.2-0.6,0.4-1.2l0.7-1.8c0.7-0.9,1.9-1.9,2.5-1.9s0.7,0.3,0.7,0.9S52.3,148.6,50.6,148.6 M55.5,143.1c0-1.3-0.5-1.8-1.3-1.8
		s-2.2,1.2-3.2,2.6l2.6-6.8v-0.2l-2.8,0.3v0.3l0.6,0.4c0.5,0.4,0.3,0.8-0.1,1.9l-2.9,7.2c-0.2,0.5-0.4,0.9-0.5,1.4
		c0,0.7,1,1.4,1.9,1.4S55.5,146,55.5,143.1 M47,142.2c0.2-0.3,0.1-0.7-0.2-0.8c-0.1,0-0.2-0.1-0.3-0.1c-1.5,0.2-2.8,1.3-3.3,2.7h0.4
		c0.4-0.6,1-1,1.7-1.3l-2.4,6.2c-0.1,0.4,0.1,0.8,0.5,0.9c0,0,0.1,0,0.1,0c1.5-0.2,2.7-1.3,3.1-2.7h-0.4c-0.4,0.6-1,1.1-1.7,1.3
		L47,142.2z M47.5,139.1c0.6,0,1-0.4,1-1s-0.4-1-1-1s-1,0.4-1,1S46.9,139.1,47.5,139.1 M41.2,138.1h-5.7v0.5c1.6,0.4,1.8,0.5,1,2.7
		l-1.8,5.1c-0.8,2.1-1.1,2.3-3.1,2.6v0.5H40l1.9-3.3h-0.7c-1,1.1-2.3,2.6-4.2,2.6s-1.6-0.2-0.8-2.4l1.8-5.1c0.8-2.2,1.1-2.3,3-2.7
		L41.2,138.1z"/>
	<path d="M31.4,91.5V70.9h6.3c1.9-0.1,3.8,0.4,5.4,1.6c1.3,1.1,2.1,2.8,2,4.5c0,1.2-0.3,2.3-0.9,3.3c-0.6,0.9-1.4,1.6-2.4,2.1
		l6.4,9.1h-5l-5.5-8.3h-2.1v8.3H31.4z M37.9,74.4h-2.3v5.2h2.3c0.8,0.1,1.5-0.2,2.1-0.7c0.5-0.5,0.8-1.2,0.8-1.9
		c0-0.7-0.3-1.4-0.8-1.9C39.4,74.6,38.7,74.4,37.9,74.4z"/>
	<path d="M50.8,91.5V70.9h12.1v3.5H55v4.8h6.7v3.6H55v5.1h7.9v3.6H50.8z M58.7,69.1h-3.8l3.3-4h4.4L58.7,69.1z"/>
	<path d="M67.7,91.5V70.9h6.9c1.9-0.1,3.8,0.5,5.3,1.6c2.5,2.3,2.7,6.1,0.4,8.6c-0.1,0.1-0.2,0.3-0.4,0.4c-1.5,1.2-3.4,1.8-5.3,1.7
		h-2.7v8.3H67.7z M74.7,74.4h-2.8v5.2h2.8c0.8,0.1,1.5-0.2,2.1-0.7c0.5-0.5,0.8-1.2,0.8-1.9c0-0.7-0.3-1.4-0.8-1.9
		C76.2,74.6,75.5,74.4,74.7,74.4z"/>
	<path d="M97.5,83.8V70.9h4.2v12.5c0.1,2.4-0.7,4.6-2.3,6.4c-3.5,3.1-8.7,3.1-12.2,0c-1.5-1.8-2.3-4.1-2.2-6.4V70.9h4.2v12.9
		c-0.1,1.2,0.3,2.3,1.1,3.2c0.8,0.8,1.9,1.3,3,1.2c1.2,0.1,2.3-0.4,3.1-1.2C97.2,86.1,97.6,85,97.5,83.8z"/>
	<path d="M106.9,91.5V70.9h5.9c1.8-0.1,3.6,0.4,5,1.5c1.3,1,2,2.5,1.9,4.1c0,0.8-0.2,1.6-0.6,2.3c-0.4,0.7-0.9,1.3-1.6,1.7
		c1,0.4,1.9,1.2,2.5,2.1c0.6,0.8,0.9,1.8,0.9,2.8c0.1,1.8-0.7,3.4-2.1,4.5c-1.6,1.2-3.6,1.7-5.6,1.6H106.9z M112.8,74.4h-1.7V79h1.7
		c0.7,0,1.4-0.2,1.9-0.6c0.9-0.9,0.9-2.5,0-3.4c0,0,0,0,0,0C114.2,74.6,113.5,74.4,112.8,74.4z M113.4,82.6h-2.3v5.3h2.3
		c0.8,0.1,1.7-0.2,2.3-0.7c0.6-0.5,0.9-1.2,0.9-2c0-0.8-0.3-1.5-0.9-2C115,82.8,114.2,82.5,113.4,82.6z"/>
	<path d="M125.1,91.5V70.9h4.2v16.8h7.9v3.8H125.1z"/>
	<path d="M140.9,91.5V70.9h4.2v20.6H140.9z"/>
	<path d="M168.2,91c0.6,0.6,1.4,1.1,2.2,1.5c0.7,0.3,1.4,0.5,2.1,0.5h0.7l0.8-0.2v3.6l-1,0.3h-1.2c-1.1,0-2.3-0.3-3.3-0.7
		c-1.2-0.5-2.2-1.2-3.2-2.1l-2.4-2.1l-1.4,0.2H160c-1.5,0-3-0.3-4.4-0.9c-1.3-0.6-2.5-1.3-3.5-2.3c-1.9-2.1-3-4.8-3-7.7
		c0-2.9,1.1-5.6,3-7.7c1-1,2.2-1.8,3.5-2.3c1.4-0.6,2.9-0.9,4.4-0.9c1.5,0,3.1,0.3,4.5,0.9c1.3,0.6,2.5,1.3,3.5,2.3
		c1.9,2.1,3,4.8,3,7.7c0,1.7-0.4,3.3-1.1,4.8c-0.7,1.5-1.7,2.8-3,3.8L168.2,91z M160,88.2c1.8,0,3.5-0.8,4.8-2
		c0.6-0.7,1-1.4,1.4-2.2c0.7-1.8,0.7-3.8,0-5.6c-0.3-0.8-0.8-1.5-1.4-2.2c-0.6-0.6-1.3-1.1-2.1-1.5c-0.9-0.3-1.8-0.5-2.7-0.5
		c-0.9,0-1.8,0.2-2.6,0.5c-0.8,0.3-1.5,0.8-2.1,1.5c-0.6,0.6-1.1,1.4-1.4,2.2c-0.7,1.8-0.7,3.8,0,5.6c0.3,0.8,0.8,1.6,1.4,2.2
		c0.6,0.7,1.3,1.1,2.1,1.4C158.2,88,159.1,88.2,160,88.2z"/>
	<path d="M187.2,83.8V70.9h4.2v12.5c0.1,2.4-0.7,4.6-2.3,6.4c-3.5,3.1-8.7,3.1-12.2,0c-1.6-1.8-2.4-4-2.3-6.4V70.9h4.2v12.9
		c-0.1,1.2,0.4,2.4,1.2,3.2c0.8,0.8,1.9,1.3,3,1.2c1.2,0.1,2.3-0.4,3.1-1.2C186.9,86.1,187.3,85,187.2,83.8z"/>
	<path d="M196.6,91.5V70.9h12v3.5h-7.8v4.8h6.6v3.6h-6.6v5.1h7.8v3.6H196.6z"/>
	<path d="M31.4,122.7v-20.6h12v3.5h-7.8v4.8h6.7v3.6h-6.7v8.7H31.4z"/>
	<path d="M47.1,122.7v-20.6h6.3c1.9-0.1,3.8,0.4,5.4,1.6c1.3,1.1,2.1,2.8,2,4.5c0,1.2-0.3,2.3-0.9,3.3c-0.6,0.9-1.4,1.6-2.4,2.1
		l6.5,9.1h-5l-5.5-8.3h-2.2v8.3H47.1z M53.7,105.6h-2.4v5.2h2.4c0.7,0.1,1.5-0.2,2-0.7c0.5-0.5,0.8-1.2,0.8-1.9
		c0-0.7-0.3-1.4-0.8-1.9C55.1,105.8,54.4,105.6,53.7,105.6z"/>
	<path d="M64.9,122.7l7.8-20.6h5.5l7.8,20.6h-4.5l-2-5.4h-8.2l-2,5.4H64.9z M72.6,113.8h5.6l-2.8-7.8L72.6,113.8z"/>
	<path d="M89.2,122.7v-20.6h5.3l9.3,14.7v-14.7h4.2v20.6h-5.4l-9.3-14.8v14.8H89.2z"/>
	<path d="M122.9,119.4c1.1,0,2.2-0.3,3.2-0.8c0.9-0.5,1.6-1.2,2.2-2l3.3,2.5c-0.8,1.1-1.8,2-3,2.7c-1.2,0.7-2.6,1.2-4,1.4l-2.6,4.3
		h-3.7l2.6-4.4c-1.3-0.2-2.6-0.6-3.7-1.3c-1-0.7-2-1.5-2.8-2.4c-0.8-1-1.4-2.1-1.8-3.3c-0.4-1.2-0.6-2.4-0.6-3.7
		c0-2.9,1.1-5.6,3-7.7c1-1,2.2-1.8,3.5-2.3c1.4-0.6,2.9-0.9,4.4-0.9c1.8,0,3.5,0.4,5.1,1.1c1.4,0.7,2.7,1.8,3.6,3.1l-3.3,2.5
		c-0.6-0.8-1.3-1.5-2.2-2c-1-0.5-2.1-0.8-3.2-0.8c-0.9,0-1.8,0.2-2.6,0.5c-0.8,0.4-1.6,0.9-2.2,1.5c-0.5,0.7-1,1.4-1.3,2.2
		c-0.7,1.8-0.7,3.8,0,5.6c0.3,0.8,0.8,1.5,1.3,2.2c0.6,0.6,1.4,1.1,2.2,1.4C121.1,119.2,122,119.4,122.9,119.4z"/>
	<path d="M132.5,122.7l7.8-20.6h5.5l7.8,20.6h-4.4l-2-5.4H139l-2,5.4H132.5z M140.3,113.8h5.6l-2.8-7.8L140.3,113.8z"/>
	<path d="M156.8,122.7v-20.6h4.2v20.6H156.8z"/>
	<path d="M164.9,119.9l3.1-2.8c0.6,0.7,1.3,1.3,2.1,1.8c0.7,0.5,1.6,0.7,2.5,0.7c0.7,0,1.4-0.2,1.9-0.6c0.5-0.5,0.7-1.1,0.7-1.8
		c0-0.9-0.6-1.8-1.5-2.1l-3.2-1.6c-1.2-0.5-2.3-1.3-3.3-2.1c-1-1.1-1.5-2.5-1.4-3.9c0-0.8,0.1-1.6,0.5-2.3c0.3-0.8,0.7-1.4,1.3-2
		c0.6-0.5,1.3-0.9,2.1-1.2c0.8-0.4,1.8-0.5,2.7-0.5c1.4,0,2.8,0.3,4.1,0.9c1.2,0.7,2.2,1.5,3.1,2.6l-3.1,2.7
		c-0.5-0.7-1.2-1.4-1.9-1.9c-0.7-0.4-1.4-0.7-2.2-0.7c-0.6,0-1.3,0.2-1.7,0.7c-0.5,0.4-0.7,0.9-0.7,1.5c0,0.9,0.6,1.8,1.5,2.1
		l3.2,1.6c1.2,0.5,2.3,1.3,3.3,2.2c1,1,1.6,2.4,1.5,3.9c-0.1,0.9-0.3,1.8-0.6,2.6c-0.4,0.7-0.9,1.4-1.5,2c-0.6,0.5-1.3,0.9-2.1,1.2
		c-0.9,0.3-1.8,0.4-2.7,0.4c-1.5,0-3-0.3-4.4-0.9C166.9,121.8,165.8,120.9,164.9,119.9z"/>
	<path d="M183.9,122.7v-20.6h12v3.5H188v4.8h6.7v3.6H188v5.1h7.9v3.6H183.9z"/>
	<g id="Marianne">
		<path id="Fond-2" class="st0" d="M63.6,53.3l0.9-0.9l0,0c0.5-0.6,1.2-1.3,1.8-1.8l0.6-0.5C67,50,67,50,67,49.9l-0.7,0.4
			c0,0-0.1,0,0-0.1l0.5-0.4h-0.1c-0.7,0-1.3,0.3-1.7,0.8h-0.2c-0.8,0.3-1.4,1-2.2,1.3l0,0l-1,0.4c-0.4,0.1-0.9,0.1-1.3,0l-2,0.4l0,0
			l-1,0.4h-0.1c0,0.1,0,0.1-0.1,0.1l-0.3,0.3c-0.3,0.2-0.6,0.4-0.9,0.7h-0.1l-0.9,0.9h-0.1c0.1,0,0.1-0.1,0.2-0.2
			c0-0.1,0-0.1,0.1-0.2c0.1-0.1,0.2-0.3,0.2-0.4l0,0l0.9-0.6l0,0c-0.1,0-0.1,0-0.1-0.1h-0.2c-0.1,0.2-0.2,0.4-0.4,0.4l0,0
			c0-0.1,0-0.1,0.1-0.1l0,0l0.4-0.3l0,0l0.6-0.4h0.1l-0.9,0.4h-0.1c0,0,0,0.1-0.1,0l0,0l0.3-0.3H56c1.7-1.3,4.1-1,6.1-1.7l0.5-0.3
			c0.2-0.1,0.4-0.4,0.8-0.5c0.4-0.3,0.7-0.8,0.9-1.3h-0.1c-0.7,0.3-1.5,0.5-2.3,0.5c-1.1,0.4-2.4,0.6-3.6,0.6h0.3
			c0-0.1,0.1-0.2,0.2-0.3H59c0-0.1,0-0.1,0.1-0.1h0.2c-0.2-0.2-0.5,0.2-0.8,0s0.1-0.2,0.2-0.3h0.2c0-0.1,0-0.1,0.1-0.2
			c0.8-0.5,1.6-0.8,2.3-1.3s-0.2,0.2-0.4,0.1s0-0.2,0.1-0.2c0.6-0.2,1.2-0.4,1.7-0.7c-0.2,0-0.4,0.2-0.6,0h0.3v-0.2
			c0-0.1,0-0.1,0.1-0.1h-0.1l0.3-0.2h-0.1c0.2-0.2,0.4-0.3,0.7-0.3c-0.1-0.1-0.3,0-0.3-0.1s0.1-0.1,0.2-0.1H63c-0.1,0-0.1,0-0.1-0.1
			c0-0.1,0-0.1,0.1-0.1l0,0c0.2-0.4,0.4-0.9,0.5-1.3h-0.1c-0.6,0.5-1.4,0.9-2.2,1.1h-0.3c-0.3,0.1-0.6,0.1-0.9-0.1l-0.5-0.4L58.1,45
			c-1.3-0.5-2.7-0.9-4.1-1c0.6-0.2,1.3-0.4,1.9-0.5c0.9-0.4,1.8-0.5,2.7-0.5c-0.2-0.1-0.4,0-0.5,0c-0.8,0-1.6,0.1-2.3,0.3l-1.6,0.4
			c-0.3,0.1-0.5,0.5-0.8,0.4v-0.2c0.5-0.7,1.2-1.2,2-1.3c0.9-0.1,1.9-0.1,2.8,0.1l2.1,0.4c0.2,0,0.3,0.4,0.5,0.5s0.6,0,1,0.2
			s-0.1-0.2,0-0.3s0.4,0,0.7-0.1s-0.4-0.7-0.6-1.1l0,0c0.4,0.4,0.8,0.7,1.3,1c0.3,0.2,0.9,0.3,0.8,0c-0.3-0.6-0.7-1.1-1.2-1.6v-0.2
			h-0.2V41c-0.2-0.1-0.1-0.3-0.3-0.4s0-0.7-0.1-1C62.1,39.3,62,39,62,38.7c-0.2-0.9-0.4-1.7-0.5-2.6c-0.1-1,0.6-1.8,1.1-2.7
			c0.3-0.7,0.8-1.3,1.5-1.7c0.2-0.6,0.5-1.2,1-1.7c0.4-0.5,1-0.9,1.6-1.1l1.5-0.6h10.7l0.2,0.2l0.8,0.4c0.4,0.2,0.7,0.5,1,0.8
			c0.1,0.2,0.3,0.5,0.2,0.7s-0.2,0.7-0.4,0.8c-0.4,0.2-0.8,0.2-1.2,0.2l-0.6-0.2c0.8,0.3,1.6,0.8,2.1,1.5l0.5,0.2l0,0
			c-0.1,0.1-0.2,0.2-0.1,0.3h0.1c0.3-0.1,0.2-0.6,0.6-0.4c0.3,0.1,0.4,0.4,0.3,0.6c0,0.1-0.1,0.1-0.1,0.2l-0.6,0.5
			c-0.1,0.1-0.1,0.3,0,0.4l0.3,0.6l0.3,1.2c0.3,0.8,0.4,1.6,0.4,2.4c0,0.4-0.2,0.8-0.1,1.2c0.2,0.4,0.4,0.8,0.6,1.2
			c0.3,0.2,0.5,0.5,0.6,0.8c0.3,0.5,0.9,1.1,0.7,1.7s-0.8,0.3-1.2,0.6s0,0.7,0.2,0.9s-0.4,0.8-0.7,1s0.3,0.1,0.3,0.2
			s0.4,0.4,0.2,0.7s-0.9,0.5-0.5,1s0,0.8-0.1,1.1c-0.2,0.4-0.5,0.7-1,0.8c-0.3,0.2-0.7,0.2-1,0.1h-0.3c-0.9-0.2-1.8-0.3-2.7-0.4
			l-0.8,0.2l-0.6,0.6H76L75.6,51l0,0c0,0.1,0,0.1-0.1,0.1l-0.4,1c-0.3,1.2-0.2,2.3,0.1,2.5s1.8,0.6,2.9,1.2l1.3,0.6h-22
			c1.1-0.7,2.3-1.3,3.5-1.8c1-0.4,1.9-0.9,2.7-1.6 M55.4,49.2c-0.1,0-0.3,0.1-0.3,0s0.4-0.3,0.7-0.4s0.2-0.2,0.3-0.1l0.4,0.2
			C56.2,49.2,55.8,49.1,55.4,49.2 M47.2,48L47.2,48c0.6-0.8,1.2-1.7,1.7-2.7c0.6-0.4,1.2-0.8,1.8-1.3c0.8-1,1.9-1.8,3-2.4
			c0.5-0.1,1-0.1,1.4,0.1c-0.2,0.2-0.5,0.2-0.7,0.3h-0.1v-0.2c-0.5,0.6-1.3,0.9-1.7,1.6s-0.5,1.2-1.2,1.3s0-0.1-0.1-0.1
			c-1.5,1.1-2.9,2.3-4.1,3.7 M51.6,44.8c0,0.1-0.1,0.1-0.1,0.2s-0.1,0.2-0.2,0.2h-0.1C51.2,45,51.4,44.7,51.6,44.8L51.6,44.8
			 M54.1,52.7c0,0.1-0.1,0.1-0.1,0.2s0.1,0,0.1,0.1l-0.4,0.2c-0.1,0-0.1,0-0.1,0.1h-0.2c-0.1,0.1-0.4,0.1-0.3,0l0.4-0.4
			c0.1-0.1,0.2-0.1,0.2-0.2L54.1,52.7 M53.2,52.3L53.2,52.3l-0.7,0.4L51.8,53h-0.1l-0.5,0.4h-0.3c0,0.1,0,0.1-0.1,0.1h-0.1
			c0,0.1,0,0.1-0.1,0.1h-0.1c-0.1,0.1-0.2,0.1-0.2,0.2L50,54.1h-0.3l0.2-0.2h0.2c0-0.1,0.1-0.2,0.2-0.2l0,0l0,0c0-0.1,0-0.1,0.1-0.1
			l0,0c0.1-0.1,0.1-0.1,0.1-0.2l0,0c0.1-0.1,0.2-0.2,0.2-0.3l0,0l-0.2,0.2c-0.1,0-0.1,0-0.1-0.1c0.1,0,0.1,0,0.1-0.1h0.1l0.2-0.3H51
			v-0.2l0,0c0.6-0.5,1.4-0.4,2.1-0.8s0.6,0.1,0.8,0h0.5l-1.3,0.9 M54.2,49c-0.1-0.1,0.1,0,0.2-0.2H54l-0.9,0.3L52,49.5
			c-0.5,0.3-1.1,0.6-1.7,0.9c-0.1,0-0.1,0-0.1-0.1l0.4-0.3l0,0c0.4-0.5,0.9-1,1.5-1.4v-0.2c0.2-0.2,0.4-0.4,0.6-0.6
			c0.1-0.2,0.3-0.4,0.5-0.5H53c-0.2,0-0.4,0.1-0.6-0.1l0.3-0.2h-0.1c-0.1-0.2,0.1-0.3,0.3-0.3l0.6-0.2c-0.4-0.1-0.8,0.1-1.2-0.1
			c0.2-0.7,0.7-1.3,1.4-1.6h0.1c0,0.3-0.1,0.5-0.4,0.5l1.3,0.4c0,0.1,0,0.1-0.1,0.1c-0.1,0-0.1,0-0.1-0.1c0.2,0.2,0.6,0.1,0.8,0.3
			s-0.3,0-0.4,0c1.6,0.5,3.4,0.8,4.8,1.9c-1.2,0.4-2.4,0.5-3.7,0.5h-0.5c-0.2,0-0.4,0-0.5,0.2h-0.7"/>
		<path id="Rouge" class="st1" d="M63.6,53.3l0.9-0.9l0,0c0.5-0.6,1.2-1.3,1.8-1.8l0.6-0.5C67,50,67,50,67,49.9l-0.7,0.4
			c0,0-0.1,0,0-0.1l0.5-0.4h-0.1c-0.7,0-1.3,0.3-1.7,0.8h-0.2c-0.8,0.3-1.4,1-2.2,1.3l0,0l-1,0.4c-0.4,0.1-0.9,0.1-1.3,0l-2,0.4l0,0
			l-1,0.4h-0.1c0,0.1,0,0.1-0.1,0.1l-0.3,0.3l-0.9,0.7c-0.1,0-0.1,0-0.1,0.1l-0.9,0.8h-0.1c0.1,0,0.1-0.1,0.2-0.2
			c0-0.1,0-0.1,0.1-0.2c0.1-0.1,0.2-0.3,0.2-0.4l0,0l0.9-0.6l0,0c-0.1,0-0.1,0-0.1-0.1h-0.2c-0.1,0.2-0.2,0.4-0.4,0.4l0,0
			c0-0.1,0-0.1,0.1-0.1l0,0l0.4-0.3l0,0l0.6-0.4h0.1l-0.9,0.4h-0.1c0,0,0,0.1-0.1,0l0,0l0.3-0.3H56c1.7-1.3,4.1-1,6.1-1.7l0.5-0.3
			c0.2-0.1,0.4-0.4,0.8-0.5c0.4-0.3,0.7-0.8,0.9-1.3h-0.1c-0.7,0.3-1.5,0.5-2.3,0.5c-1.1,0.4-2.4,0.6-3.6,0.6h0.3
			c0-0.1,0.1-0.2,0.2-0.3H59c0-0.1,0-0.1,0.1-0.1h0.2c-0.2-0.2-0.5,0.2-0.8,0s0.1-0.2,0.2-0.3h0.2c0-0.1,0-0.1,0.1-0.2
			c0.8-0.5,1.6-0.8,2.3-1.3s-0.2,0.2-0.4,0.1s0-0.2,0.1-0.2c0.6-0.2,1.2-0.4,1.7-0.7c-0.2,0-0.4,0.2-0.6,0h0.3v-0.2
			c0-0.1,0-0.1,0.1-0.1h-0.1l0.3-0.2h-0.1c0.2-0.2,0.4-0.3,0.7-0.3c-0.1-0.1-0.3,0-0.3-0.1s0.1-0.1,0.2-0.1H63c-0.1,0-0.1,0-0.1-0.1
			c0-0.1,0-0.1,0.1-0.1l0,0c0.2-0.4,0.4-0.9,0.5-1.3h-0.1c-0.6,0.5-1.4,0.9-2.2,1.1h-0.3c-0.3,0.1-0.6,0.1-0.9-0.1l-0.5-0.4L58.1,45
			c-1.3-0.5-2.7-0.9-4.1-1c0.6-0.2,1.3-0.4,1.9-0.5c0.9-0.4,1.8-0.5,2.7-0.5c-0.2-0.1-0.4,0-0.5,0c-0.8,0-1.6,0.1-2.3,0.3l-1.6,0.4
			c-0.3,0.1-0.5,0.5-0.8,0.4v-0.2c0.5-0.7,1.2-1.2,2-1.3c0.9-0.1,1.9-0.1,2.8,0.1l2.1,0.4c0.2,0,0.3,0.4,0.5,0.5s0.6,0,1,0.2
			s-0.1-0.2,0-0.3s0.4,0,0.7-0.1s-0.4-0.7-0.6-1.1l0,0c0.5,0.3,0.8,0.8,1.3,1s0.9,0.3,0.8,0c-0.3-0.6-0.7-1.1-1.2-1.6v-0.2h-0.2V41
			c-0.2-0.1-0.1-0.3-0.2-0.4s-0.1-0.7-0.2-1C62.1,39.3,62,39,62,38.7c-0.2-0.9-0.4-1.7-0.5-2.6c-0.1-1,0.6-1.8,1.1-2.7
			c0.3-0.7,0.8-1.3,1.5-1.7c0.2-0.6,0.5-1.2,1-1.7c0.4-0.5,1-0.9,1.6-1.1l1.5-0.6H31.4v28.4h26c1.1-0.7,2.3-1.3,3.5-1.8
			C61.9,54.5,62.8,54,63.6,53.3 M55.4,49.5c-0.1,0-0.3,0.1-0.3,0s0.4-0.3,0.7-0.4s0.2-0.2,0.3-0.1l0.4,0.2
			C56.2,49.5,55.8,49.4,55.4,49.5 M47.2,48.3L47.2,48.3c0.6-0.8,1.2-1.7,1.7-2.7c0.7-0.4,1.3-1,1.8-1.6c0.8-1,1.9-1.8,3-2.4
			c0.5-0.1,1-0.1,1.4,0.1c-0.2,0.2-0.5,0.2-0.7,0.3h-0.1v-0.2c-0.5,0.6-1.3,0.9-1.7,1.6s-0.5,1.2-1.2,1.3s0-0.1-0.1-0.1
			C49.8,45.7,48.4,46.9,47.2,48.3 M51.6,44.8c0,0.1-0.1,0.1-0.1,0.2s-0.1,0.2-0.2,0.2h-0.1C51.2,45,51.4,44.7,51.6,44.8L51.6,44.8
			 M54.1,52.7c0,0.1-0.1,0.1-0.1,0.2s0.1,0,0.1,0.1l-0.4,0.2h-0.3c-0.1,0.1-0.4,0.1-0.3,0l0.4-0.4c0.1-0.1,0.2-0.1,0.2-0.2
			c0.1,0,0.1,0,0.1-0.1h0.3 M53.2,52.1L53.2,52.1l-0.7,0.4l-0.7,0.3h-0.1l-0.5,0.4h-0.3c0,0.1,0,0.1-0.1,0.1h-0.1
			c0,0.1,0,0.1-0.1,0.1h-0.1c-0.1,0.1-0.2,0.1-0.2,0.2L50,53.9h-0.3l0.2-0.2h0.2c0-0.1,0.1-0.2,0.2-0.2l0,0l0,0c0-0.1,0-0.1,0.1-0.1
			l0,0c0.1-0.1,0.1-0.1,0.1-0.2l0,0c0.1-0.1,0.2-0.2,0.2-0.3l0,0l-0.2,0.2c-0.1,0-0.1,0-0.1-0.1c0.1,0,0.1,0,0.1-0.1h0.1l0.2-0.3H51
			v-0.2l0,0c0.6-0.5,1.4-0.4,2.1-0.8s0.6,0.1,0.8,0h0.5l-1.3,0.9 M54.2,48.8c-0.1-0.1,0.1,0,0.2-0.2H54l-0.9,0.3L52,49.3
			c-0.5,0.3-1.1,0.6-1.7,0.9c-0.1,0-0.1,0-0.1-0.1l0.4-0.3l0,0c0.4-0.5,0.9-1,1.5-1.4v-0.2c0.2-0.2,0.4-0.4,0.6-0.6
			c0.1-0.2,0.3-0.4,0.5-0.5H53c-0.2,0-0.4,0.1-0.6-0.1l0.3-0.2h-0.1c-0.1-0.2,0.1-0.3,0.3-0.3l0.6-0.2c-0.4-0.1-0.8,0.1-1.2-0.1
			c0.2-0.7,0.7-1.3,1.4-1.6h0.1c0,0.3-0.1,0.5-0.4,0.5l1.3,0.4c0,0.1,0,0.1-0.1,0.1c-0.1,0-0.1,0-0.1-0.1c0.2,0.2,0.6,0.1,0.8,0.3
			s-0.3,0-0.4,0c1.6,0.5,3.4,0.8,4.8,1.9c-1.2,0.4-2.4,0.7-3.7,0.7h-0.5c-0.2,0-0.4,0-0.5,0.2h-0.7"/>
		<path id="Bleu" class="st2" d="M109.3,28.3H78.9l0.2,0.2l0.8,0.4c0.4,0.2,0.7,0.5,1,0.8c0.1,0.2,0.3,0.5,0.2,0.7s-0.2,0.7-0.4,0.8
			c-0.4,0.2-0.8,0.2-1.2,0.2l-0.6-0.2c0.8,0.3,1.6,0.8,2.1,1.5l0.5,0.2l0,0c-0.1,0.1-0.2,0.2-0.1,0.3h0.1c0.3-0.1,0.2-0.6,0.6-0.4
			c0.3,0.1,0.4,0.4,0.3,0.6c0,0.1-0.1,0.1-0.1,0.2l-0.6,0.5c-0.1,0.1-0.1,0.3,0,0.4l0.3,0.6l0.3,1.2c0.3,0.8,0.4,1.6,0.4,2.4
			c0,0.4-0.2,0.8,0,1.2c0.1,0.4,0.3,0.8,0.5,1.2c0.3,0.2,0.5,0.5,0.6,0.8c0.4,0.5,0.9,1.1,0.7,1.7s-0.8,0.3-1.2,0.6s0,0.7,0.2,0.9
			s-0.4,0.8-0.7,1s0.3,0.1,0.3,0.2s0.4,0.4,0.2,0.7s-0.9,0.5-0.5,1s0,0.8-0.1,1.1c-0.2,0.4-0.5,0.7-1,0.8c-0.3,0.2-0.7,0.2-1,0.1
			h-0.3c-0.9-0.2-1.8-0.3-2.7-0.4l-0.8,0.2l-0.6,0.6H76L75.6,51l0,0c0,0.1,0,0.1-0.1,0.1l-0.4,1c-0.3,1.2-0.2,2.3,0.1,2.5
			s1.8,0.6,2.9,1.2l1.3,0.6h29.9V28.3z"/>
		<path id="Yeux" class="st3" d="M80.7,38.7h0.5c-0.1,0.5-0.7,0.6-1.1,1H80c-0.2,0.1-0.1,0.4-0.3,0.4s-0.3,0-0.5,0
			c0.2,0.3,0.5,0.4,0.8,0.4l0.2,0.2h0.2V41c-0.2,0.2-0.4,0.1-0.6,0.2H81c0.3-0.2,0-0.7,0.2-1s0-0.1-0.1-0.1s0.2-0.3,0.3-0.3
			s0.3-0.1,0.3-0.2s-0.2-0.2-0.1-0.3s0.6-0.5,0.5-0.8s-0.5-0.2-0.8-0.3c-0.3-0.1-0.6,0-0.9,0.1l-0.8,0.2l-1,0.5
			c0.4-0.2,0.8-0.3,1.2-0.3C80.1,38.6,80.4,38.6,80.7,38.7"/>
	</g>
</g>
</svg>
