<svg xmlns="http://www.w3.org/2000/svg" xmlns:xlink="http://www.w3.org/1999/xlink" width="270" height="60" viewBox="0 0 270 60">
    <defs>
        <rect id="a" width="270" height="60" rx="5"/>
        <style type="text/css">
            @import url('https://fonts.googleapis.com/css?family=Roboto:400,100,100italic,300,300italic,400italic,500,500italic,700,700italic,900,900italic');
        </style>
    </defs>
    <g fill="none" fill-rule="evenodd">
        <mask id="b" fill="#fff">
            <use xlink:href="#a"/>
        </mask>
        <rect width="269" height="59" x=".5" y=".5" stroke="#003189" rx="5"/>
        <path fill="#003189" d="M0 55h270v5H0z" mask="url(#b)"/>
        <text fill="#003189" font-family="Roboto-Regular, Roboto" font-size="15" mask="url(#b)">
            <tspan x="57" y="26">Récupérer mes informations</tspan> <tspan x="57" y="44">Dossier Numérique du Citoyen</tspan>
        </text>
        <g mask="url(#b)">
            <g fill-rule="nonzero">
                <path fill="#FFF" stroke="#003189" d="M36.515 42.5h.5l-.5.5v-.5zm0 0V22.045c0-1.525-1.335-2.775-2.998-2.775h-6.563a1.4 1.4 0 0 1-1.004-.417l-2.382-2.438a3.11 3.11 0 0 0-2.224-.915h-7.847c-1.662 0-2.997 1.25-2.998 2.742.984 15.535 2.217 24.258 2.998 24.258h23.018z"/>
                <path fill="#003189" d="M37.94 43H14c1.288 0 2.454-5.87 3.498-17.612 0-1.871 1.566-3.388 3.498-3.388H37.94c1.932 0 3.498 1.517 3.498 3.388-1.016 11.74-2.182 17.61-3.498 17.611z"/>
            </g>
            <g fill-rule="nonzero">
                <path fill="#CF2128" stroke="#FFF" d="M48.5 26v4.709c0 4.047-2.147 7.709-5.459 9.286l-1.147.562-.22-.109-.822-.406c-3.257-1.612-5.35-5.24-5.352-9.237V25.5h13v.5z"/>
                <path fill="#FFF" d="M45.958 29.724l-.654-.679A.14.14 0 0 0 45.2 29a.134.134 0 0 0-.104.045l-4.533 4.61-1.65-1.665a.146.146 0 0 0-.103-.045.146.146 0 0 0-.104.045l-.661.668a.15.15 0 0 0 0 .214l2.08 2.1c.134.136.297.215.435.215.197 0 .367-.147.43-.207h.004l4.967-5.042c.052-.064.052-.158-.003-.214z"/>
            </g>
        </g>
    </g>
</svg>
