<svg id="Capa_1" enable-background="new 0 0 512 512" height="512" viewBox="0 0 512 512" width="512" xmlns="http://www.w3.org/2000/svg"><g><path d="m316.745 192.598 39.677 32.354c2.183 1.735 4.241 2.245 5.906 2.245 1.168-.001 2.143-.251 2.831-.506 3.049-1.128 4.983-3.712 5.744-7.654l5.254-26.735c18.469-1.64 35.629-9.876 48.642-23.422 13.874-14.444 21.515-33.361 21.515-53.267 0-42.449-34.535-76.984-76.984-76.984h-48.69v-13.51c0-13.85-11.269-25.119-25.12-25.119h-81.815c-4.143 0-7.5 3.357-7.5 7.5s3.357 7.5 7.5 7.5h81.815c5.58 0 10.12 4.539 10.12 10.119v21.01 84.328c0 5.485-4.635 10.119-10.12 10.119h-57.65-70.07c-.025-.001-.051-.001-.075-.001-3.05 0-4.882.401-7.583 2.7-.15.128-.325.276-.534.449s-.408.356-.598.55l-29.5 30.276-.114-24.551c-.002-.459-.047-.917-.133-1.368l-.06-.324c-1.354-7.412-7.252-7.64-9.473-7.725-.097-.004-.192-.006-.289-.006h-20.22c-5.485 0-10.119-4.634-10.119-10.119v-105.338c0-5.58 4.539-10.119 10.119-10.119h78.777c4.143 0 7.5-3.357 7.5-7.5s-3.357-7.5-7.5-7.5h-78.777c-13.851 0-25.119 11.269-25.119 25.119v105.338c0 13.851 11.269 25.119 25.119 25.119h15.2l.15 32.309c.036 3.896 1.943 7.114 5.103 8.607.886.419 2.179.841 3.79.841 2.115 0 4.778-.729 7.785-3.152.233-.188.455-.39.665-.604l37.026-38h64.589c14.008 22.945 38.787 37.021 65.73 37.021zm-64.788-37.022h43.563c13.852 0 25.12-11.269 25.12-25.119v-76.828h48.689c34.179 0 61.984 27.806 61.984 61.984 0 33.306-26.059 60.51-59.257 61.931-2.517.085-8.41.284-9.849 7.942l-4.204 21.401-31.901-26.015c-.255-.209-.465-.387-.642-.537-2.737-2.321-4.583-2.74-7.608-2.74-.054 0-.107 0-.161 0l-18.432.002c-18.437.001-35.626-8.198-47.302-22.021z"/><path d="m260.485 45.554h-78.163c-4.143 0-7.5 3.357-7.5 7.5s3.357 7.5 7.5 7.5h78.163c4.143 0 7.5-3.357 7.5-7.5s-3.357-7.5-7.5-7.5z"/><path d="m134.285 60.554h14.376c4.143 0 7.5-3.357 7.5-7.5s-3.357-7.5-7.5-7.5h-14.376c-4.143 0-7.5 3.357-7.5 7.5s3.358 7.5 7.5 7.5z"/><path d="m260.485 91.166h-14.405c-4.143 0-7.5 3.357-7.5 7.5s3.357 7.5 7.5 7.5h14.405c4.143 0 7.5-3.357 7.5-7.5s-3.357-7.5-7.5-7.5z"/><path d="m134.285 106.166h78.163c4.143 0 7.5-3.357 7.5-7.5s-3.357-7.5-7.5-7.5h-78.163c-4.143 0-7.5 3.357-7.5 7.5s3.358 7.5 7.5 7.5z"/><path d="m201.741 438.371c-8.938-6.452-30.471-13.124-30.549-13.143-2.433-.681-10.344-2.794-11.864-3.208-2.872-.777-4.792-4.432-6.167-7.811 23.274-15.391 40.723-42.323 40.723-65.743v-21.359c0-26.062-8.31-48.162-24.03-63.913-14.034-14.063-32.932-21.994-53.209-22.333-.082-.002-.168-.002-.25 0-20.278.339-39.175 8.271-53.21 22.333-15.721 15.751-24.03 37.852-24.03 63.913v21.359c0 23.417 17.446 50.347 40.724 65.742-1.375 3.379-3.299 7.036-6.182 7.816-1.507.41-12.001 3.246-12.075 3.267-10.734 3.013-21.384 6.627-30.324 13.08-13.332 9.623-19.813 23.388-19.813 42.081v18.438c0 7.229 5.881 13.11 13.11 13.11h74.569c4.143 0 7.5-3.357 7.5-7.5s-3.357-7.5-7.5-7.5h-72.68v-16.548c0-24.718 13.458-32.961 36.218-39.815l40.419 23.734c4.876 3.132 9.138 4.697 13.399 4.697s8.522-1.565 13.398-4.697l40.419-23.734c22.759 6.854 36.218 15.098 36.218 39.815v16.548h-72.504c-4.143 0-7.5 3.357-7.5 7.5s3.357 7.5 7.5 7.5h74.394c7.229 0 13.11-5.881 13.11-13.11v-18.438c0-18.693-6.482-32.458-19.814-42.081zm-85.221-182.511c28.119.528 58.199 20.259 61.969 62.228-5.692-1.867-8.837-5.071-12.11-8.405-5.209-5.307-11.691-11.907-25.462-8.364-3.458.892-6.42 1.681-8.998 2.367-8.022 2.138-12.049 3.21-15.398 3.21-3.351 0-7.378-1.073-15.4-3.21-2.578-.688-5.539-1.476-8.998-2.367-13.773-3.55-20.252 3.059-25.461 8.364-3.273 3.334-6.418 6.538-12.11 8.405 3.767-41.969 33.848-61.699 61.968-62.228zm-62.366 92.606v-14.801c12.411-2.483 18.548-8.726 23.21-13.475 4.437-4.52 5.627-5.733 11.015-4.347 3.411.879 6.334 1.658 8.879 2.336 8.993 2.396 13.947 3.716 19.262 3.716 5.313 0 10.267-1.319 19.26-3.715 2.545-.679 5.468-1.457 8.879-2.337 5.385-1.385 6.579-.173 11.016 4.347 4.662 4.748 10.799 10.992 23.21 13.475v14.801c0 22.659-22.185 50.779-47.462 60.171-11.001 4.065-18.802 4.065-29.793.005-25.291-9.398-47.476-37.517-47.476-60.176zm68.034 103.049c-.093.055-.185.111-.275.17-4.893 3.164-5.899 3.162-10.788 0-.091-.059-.183-.115-.275-.17l-28.715-16.862c5.683-3.157 8.936-8.597 10.993-13.267 1.091.466 2.186.912 3.29 1.322 7.139 2.638 13.617 3.956 20.1 3.956 6.484 0 12.971-1.32 20.117-3.961 1.1-.409 2.192-.853 3.278-1.316 2.057 4.671 5.309 10.114 10.99 13.268z"/><path d="m480.703 438.371c-11.028-7.961-24.658-11.602-37.84-15.122-1.531-.408-3.053-.815-4.573-1.229-2.872-.777-4.793-4.432-6.168-7.811 23.275-15.391 40.723-42.324 40.723-65.743v-21.359c0-26.062-8.31-48.162-24.03-63.913-14.035-14.063-32.932-21.994-53.21-22.333-.082-.002-.168-.002-.25 0-20.277.339-39.175 8.271-53.209 22.333-15.721 15.751-24.03 37.852-24.03 63.913v21.359c0 23.418 17.445 50.348 40.723 65.742-1.375 3.379-3.299 7.036-6.181 7.816-1.507.41-3.028.817-4.56 1.226-13.182 3.521-26.812 7.161-37.84 15.122-13.332 9.623-19.813 23.388-19.813 42.081v18.438c0 7.229 5.881 13.11 13.11 13.11h77.899c4.143 0 7.5-3.357 7.5-7.5s-3.357-7.5-7.5-7.5h-76.01v-16.548c0-24.718 13.458-32.961 36.218-39.815l40.419 23.734c4.876 3.132 9.138 4.697 13.398 4.697 4.262 0 8.523-1.565 13.399-4.697l40.419-23.734c22.759 6.854 36.218 15.098 36.218 39.815v16.547h-69.582c-4.143 0-7.5 3.357-7.5 7.5s3.357 7.5 7.5 7.5h71.472c7.229 0 13.11-5.881 13.11-13.11v-18.438c.002-18.693-6.48-32.458-19.812-42.081zm-85.223-182.511c28.119.528 58.2 20.259 61.97 62.228-5.692-1.867-8.837-5.071-12.11-8.405-4.186-4.264-9.193-9.365-18.146-9.365-2.188 0-4.612.305-7.317 1.001-3.457.892-6.418 1.68-8.996 2.367-8.022 2.137-12.05 3.21-15.4 3.21s-7.376-1.072-15.398-3.21c-2.578-.687-5.54-1.476-9-2.367-13.769-3.55-20.251 3.058-25.46 8.364-3.273 3.334-6.418 6.538-12.11 8.405 3.768-41.969 33.848-61.699 61.967-62.228zm-62.364 92.606v-14.801c12.411-2.483 18.548-8.726 23.21-13.475 4.438-4.52 5.632-5.732 11.014-4.347 3.413.88 6.336 1.658 8.881 2.337 8.993 2.396 13.946 3.715 19.26 3.715s10.269-1.32 19.262-3.716c2.545-.678 5.468-1.457 8.877-2.336 5.392-1.387 6.581-.171 11.017 4.347 4.662 4.748 10.799 10.992 23.21 13.475v14.801c0 22.659-22.185 50.778-47.462 60.171-11.005 4.066-18.804 4.065-29.793.005-25.291-9.397-47.476-37.517-47.476-60.176zm68.034 103.049c-.093.055-.185.111-.275.17-4.89 3.162-5.896 3.164-10.788 0-.091-.059-.183-.115-.275-.17l-28.697-16.852c5.677-3.156 8.918-8.61 10.974-13.278 1.091.466 2.187.912 3.291 1.322 7.138 2.638 13.616 3.956 20.099 3.956 6.484 0 12.972-1.32 20.118-3.961 1.1-.409 2.191-.853 3.278-1.316 2.056 4.67 5.297 10.125 10.972 13.279z"/></g></svg>