<svg xmlns="http://www.w3.org/2000/svg" width="24" height="24" viewBox="0 0 24 24">
    <path fill="#003189" fill-rule="evenodd" d="M12 0c4.963 0 9 4.038 9 9 0 6.64-8.304 14.531-8.657 14.864-.097.09-.22.136-.343.136-.123 0-.246-.045-.343-.136C11.304 23.531 3 15.64 3 9c0-4.962 4.037-9 9-9zm0 22.8c1.571-1.569 8-8.323 8-13.8 0-4.411-3.589-8-8-8S4 4.589 4 9c0 5.477 6.429 12.231 8 13.8zM12 4c2.757 0 5 2.243 5 5s-2.243 5-5 5-5-2.243-5-5 2.243-5 5-5zm0 9c2.206 0 4-1.794 4-4s-1.794-4-4-4-4 1.794-4 4 1.794 4 4 4z"/>
</svg>
