<svg xmlns="http://www.w3.org/2000/svg" width="50" height="36" viewBox="0 0 50 36">
    <g fill="#003189" fill-rule="nonzero">
        <path d="M48.566 2.957h-3.264V1.843a.96.96 0 0 0-.69-.96A27.045 27.045 0 0 0 37.69 0c-3.84 0-9.072.864-12.941 4.8C20.909.826 15.639 0 11.808 0a27.045 27.045 0 0 0-6.922.883.96.96 0 0 0-.69.96v1.104H.96a.96.96 0 0 0-.96.96V34.57a.96.96 0 0 0 1.43.835c.096-.048 9.696-5.3 23.098-1.92H24.758c.077.01.154.01.23 0 13.44-3.408 23.04 1.834 23.098 1.92a.96.96 0 0 0 1.44-.826V3.917a.96.96 0 0 0-.96-.96zM1.92 33.043V4.877h2.294v24.077a.96.96 0 0 0 1.104.96 42.011 42.011 0 0 1 6-.48c2.783-.048 5.554.37 8.199 1.238A35.292 35.292 0 0 0 1.92 33.043zm9.398-5.52a42.24 42.24 0 0 0-5.222.336V2.602a26.477 26.477 0 0 1 5.693-.634c3.59 0 8.544.826 11.98 4.704l.03 23.914c-1.997-1.306-5.895-3.063-12.48-3.063zm14.4-20.85c3.437-3.84 8.39-4.705 11.981-4.705 1.915.006 3.824.218 5.693.634v25.257a42.227 42.227 0 0 0-5.194-.345c-6.547 0-10.454 1.757-12.48 3.062V6.672zm21.879 26.37a35.299 35.299 0 0 0-17.635-2.37 24.961 24.961 0 0 1 8.236-1.24 42 42 0 0 1 6.039.471.96.96 0 0 0 1.104-.96V4.877h2.294l-.038 28.166z"/>
        <path stroke="#003189" stroke-linecap="round" stroke-width="2" d="M40.47 21.072c-3.979-.54-7.645.067-10.998 1.821M40.47 15.072c-3.979-.54-7.645.067-10.998 1.821M40.47 9.072c-3.979-.54-7.645.067-10.998 1.821M9.472 21.072c3.978-.54 7.644.067 10.998 1.821M9.472 15.072c3.978-.54 7.644.067 10.998 1.821M9.472 9.072c3.978-.54 7.644.067 10.998 1.821"/>
    </g>
</svg>
