<svg xmlns="http://www.w3.org/2000/svg" width="30" height="30" viewBox="0 0 30 30">
    <g fill="#003189" fill-rule="nonzero">
        <circle cx="15" cy="22.178" r="1.465"/>
        <path d="M15 0C6.71 0 0 6.709 0 15c0 8.29 6.709 15 15 15 8.29 0 15-6.709 15-15 0-8.29-6.709-15-15-15zm0 27.656c-6.995 0-12.656-5.66-12.656-12.656C2.344 8.005 8.004 2.344 15 2.344c6.995 0 12.656 5.66 12.656 12.656 0 6.995-5.66 12.656-12.656 12.656z"/>
        <path d="M15 7.53a4.693 4.693 0 0 0-4.687 4.687 1.172 1.172 0 1 0 2.343 0A2.346 2.346 0 0 1 15 9.873a2.346 2.346 0 0 1 2.344 2.344A2.346 2.346 0 0 1 15 14.56c-.647 0-1.172.524-1.172 1.171v2.93a1.172 1.172 0 1 0 2.344 0v-1.906a4.696 4.696 0 0 0 3.516-4.54A4.693 4.693 0 0 0 15 7.53z"/>
    </g>
</svg>
