<svg xmlns="http://www.w3.org/2000/svg" width="50" height="50" viewBox="0 0 50 50">
    <g fill="#003189" fill-rule="nonzero">
        <path d="M34 9.211a2.214 2.214 0 0 0-3.776-1.564.766.766 0 0 0 1.083 1.083.68.68 0 0 1 .962.962.766.766 0 0 0 1.083 1.084c.418-.418.648-.974.648-1.565z"/>
        <path d="M48.784 20.694a15.334 15.334 0 0 0 1.11-5.572c.042-3.806-1.31-7.383-3.823-10.154a6.478 6.478 0 0 1 2.641-1.515.732.732 0 1 0-.408-1.406 7.945 7.945 0 0 0-3.269 1.886C40.705.008 34.566-.886 29.314 1.222A5.641 5.641 0 0 0 25.798 0h-.086a5.644 5.644 0 0 0-3.927 1.662 5.654 5.654 0 0 0-1.036 6.61 3.346 3.346 0 0 0-1.333.21c-3.277 1.23-8.066 4.46-10.904 7.354a7.962 7.962 0 0 0-2.253 6.016c.037.656.1 1.384.184 2.168-1.92 1.778-3.658 4.023-4.801 6.212-.759 1.453-1.9 4.157-1.022 5.954l.01.022a10.232 10.232 0 0 0 2.378 10.784 10.233 10.233 0 0 0 10.783 2.377l.022.011c.43.21.943.313 1.525.313 1.446 0 3.315-.638 5.373-1.862a24.343 24.343 0 0 0 5.266-4.274c.787.085 1.516.147 2.17.184a7.96 7.96 0 0 0 6.016-2.253c1.66-1.626 3.476-3.933 4.985-6.328a.732.732 0 1 0-1.24-.781c-1.45 2.303-3.189 4.513-4.77 6.063a6.493 6.493 0 0 1-4.907 1.837c-.344-.02-.71-.047-1.096-.08.195-.25.38-.502.555-.753a7.726 7.726 0 0 0 1.375-4.531c-.033-2.792-.38-7.597-1.257-12.714l-.026-.151c4.719.945 8.667 2.207 11.466 3.668a1.902 1.902 0 0 1 .899 2.351c-.163.433-.368.907-.61 1.409a.732.732 0 0 0 1.318.638c.262-.542.485-1.058.663-1.532.164-.437.23-.89.21-1.332a5.639 5.639 0 0 0 2.596.633 5.664 5.664 0 0 0 4.014-1.67A5.644 5.644 0 0 0 50 24.289a5.645 5.645 0 0 0-1.215-3.594zM22.82 2.697a4.188 4.188 0 0 1 4.94-.75 15.659 15.659 0 0 0-5.817 5.428 4.196 4.196 0 0 1 .877-4.678zM4.044 45.956a8.77 8.77 0 0 1-2.247-8.6c1.116.718 3.335 1.716 7.868 2.98.54 1.93 1.085 3.626 1.607 4.983.53 1.377.988 2.28 1.377 2.882a8.77 8.77 0 0 1-8.605-2.245zm22.443-5.346c-1.544 2.222-3.984 4.45-6.525 5.962-2.38 1.417-4.49 1.988-5.506 1.492a.532.532 0 0 1-.072-.044.748.748 0 0 0-.087-.07c-.6-.55-1.799-2.795-3.322-8.368a101.329 101.329 0 0 1-.55-2.101.732.732 0 1 0-1.42.355c.072.288.144.57.217.85-5.557-1.61-6.892-2.67-7.201-3.023l-.016-.019a.529.529 0 0 1-.07-.1c-.78-1.598 1.15-6.053 4.73-9.7.35 2.586.887 5.592 1.552 8.628a.733.733 0 0 0 1.431-.313c-1.034-4.722-1.754-9.354-1.927-12.39a6.494 6.494 0 0 1 1.837-4.908c2.71-2.764 7.266-5.842 10.373-7.008a1.901 1.901 0 0 1 2.351.9c1.156 2.213 2.725 6.698 3.86 12.42a.731.731 0 0 0 .038.193c.79 4.037 1.362 8.678 1.42 13.566a6.269 6.269 0 0 1-1.113 3.678zm14.515-13.3a3.348 3.348 0 0 0-1.077-.891c-3.077-1.606-7.256-2.924-12.426-3.918-.75-3.889-1.986-8.726-3.918-12.426a3.348 3.348 0 0 0-.89-1.078 14.14 14.14 0 0 1 2.458-3.3C30.554.292 39.248.191 44.53 5.471c5.28 5.281 5.179 13.975-.226 19.38a14.137 14.137 0 0 1-3.3 2.459zm6.3-.13a4.196 4.196 0 0 1-4.678.877 15.657 15.657 0 0 0 2.715-2.17 15.682 15.682 0 0 0 2.716-3.64 4.189 4.189 0 0 1-.753 4.933z"/>
        <path d="M40.788 16c-.59 0-1.146.23-1.564.648a.766.766 0 1 0 1.083 1.083.675.675 0 0 1 .962 0 .676.676 0 0 1 0 .962.766.766 0 1 0 1.083 1.083c.418-.418.648-.974.648-1.564 0-.591-.23-1.147-.648-1.564A2.197 2.197 0 0 0 40.788 16zM36.117 15.343a1.37 1.37 0 0 1-1.46-1.46.827.827 0 1 0-1.65-.113 3.023 3.023 0 0 0 3.223 3.223.827.827 0 0 0-.113-1.65z"/>
    </g>
</svg>
