<svg xmlns="http://www.w3.org/2000/svg" width="81" height="81" viewBox="0 0 81 81">
    <g fill="none" fill-rule="evenodd">
        <path fill="#003189" d="M41.568 2.083H15.143c-.474 0-.857.384-.857.857V45.87c0 .473.383.857.857.857h34c.473 0 .857-.384.857-.857v-35.32l-8.432-8.466zm.396 2.679l5.357 5.357h-5.357V4.762zm6.697 40.165c0 .252-.23.46-.512.46H16.135c-.282 0-.51-.208-.51-.46V3.88c0-.253.228-.458.51-.458h24.213V10.4c0 .664.6 1.203 1.338 1.203h6.975v33.324zm-4.018-21.415c0 .493-.26.893-.58.893H30.937c-.32 0-.579-.4-.579-.893s.26-.893.58-.893h13.127c.32 0 .579.4.579.893zm0-6.25c0 .493-.26.893-.58.893H30.937c-.32 0-.579-.4-.579-.893s.26-.893.58-.893h13.127c.32 0 .579.4.579.893zm0 11.607c0 .493-.26.893-.58.893H30.937c-.32 0-.579-.4-.579-.893s.26-.893.58-.893h13.127c.32 0 .579.4.579.893zm0 6.25c0 .493-.26.893-.58.893H30.937c-.32 0-.579-.4-.579-.893s.26-.893.58-.893h13.127c.32 0 .579.4.579.893z" transform="translate(15 16)"/>
        <path fill="#FFF" d="M0 17.262H30.357V36.012H0z" transform="translate(15 16)"/>
        <path fill="#003189" fill-rule="nonzero" stroke="#003189" stroke-width=".5" d="M27.354 24.886l-2.223-1.059-1.963-3.265c-.567-.946-1.565-1.52-2.637-1.514h-8.36c-.97 0-1.89.467-2.48 1.272l-2.534 3.46-4.226 1.207c-1.072.307-1.815 1.33-1.815 2.49v1.686c0 1.426 1.09 2.603 2.456 2.603h.363c.437 1.757 2.155 2.81 3.84 2.354 1.106-.302 1.974-1.2 2.257-2.354h9.529c.437 1.757 2.155 2.81 3.84 2.354 1.106-.302 1.973-1.2 2.257-2.354h.68c1.368 0 2.457-1.177 2.457-2.603v-1.922c.005-1.012-.562-1.935-1.441-2.355zM6.98 33.032c-1.112 0-2.014-.94-2.014-2.1 0-1.16.902-2.1 2.014-2.1 1.111 0 2.013.94 2.013 2.1.006 1.153-.896 2.094-2.013 2.1zm15.626 0c-1.112 0-2.014-.94-2.014-2.1 0-1.16.902-2.1 2.014-2.1 1.111 0 2.013.94 2.013 2.1.006 1.153-.896 2.094-2.013 2.1zm3.732-2.45h-.602c-.187-1.803-1.746-3.105-3.476-2.904-1.47.166-2.626 1.379-2.785 2.905h-9.364c-.188-1.804-1.747-3.106-3.477-2.905-1.47.166-2.626 1.379-2.785 2.905h-.284c-.743 0-1.321-.645-1.321-1.42v-1.686c-.006-.633.397-1.183.981-1.355l4.418-1.26c.12-.035.227-.106.3-.212l2.644-3.615c.38-.508.964-.804 1.582-.804h8.36c.681-.006 1.322.355 1.68.958l2.053 3.42c.056.1.147.177.244.224l2.37 1.13c.477.23.783.727.778 1.278v1.922h.005c0 .775-.578 1.42-1.321 1.42z" transform="translate(15 16)"/>
    </g>
</svg>
