<svg xmlns="http://www.w3.org/2000/svg" width="19" height="22" viewBox="0 0 19 22">
    <path fill="#003189" fill-rule="nonzero" d="M16.124 11.6V8.002c.017-2.742-1.795-4.562-3.352-5.286a7.81 7.81 0 0 0-1.374-.486V2c0-1.103-.881-2-1.965-2S7.468.897 7.468 2v.264a7.695 7.695 0 0 0-1.237.456c-1.72.807-3.464 2.752-3.48 5.28v3.6c0 2.555-.886 4.747-2.635 6.516a.406.406 0 0 0-.098.404.395.395 0 0 0 .308.274l3.73.656A49.94 49.94 0 0 0 6 19.754C6.686 21.122 8.033 22 9.505 22s2.819-.878 3.504-2.247a49.022 49.022 0 0 0 1.935-.303l3.73-.656a.395.395 0 0 0 .308-.274.404.404 0 0 0-.098-.404c-1.831-1.852-2.76-4.045-2.76-6.516zM8.254 2c0-.662.529-1.2 1.18-1.2.65 0 1.178.538 1.178 1.2v.073a7.68 7.68 0 0 0-2.358.019V2z"/>
</svg>
