<svg xmlns="http://www.w3.org/2000/svg" width="40" height="50" viewBox="0 0 40 50">
    <path fill="#003189" fill-rule="nonzero" d="M30.556 0H2a2 2 0 0 0-2 2v46a2 2 0 0 0 2 2h36a2 2 0 0 0 2-2V9.481L30.556 0zM31 3l6 6h-6V3zm7.5 44.985c0 .283-.257.515-.573.515H2.071c-.315 0-.571-.232-.571-.515V2.014c0-.284.256-.514.57-.514h27.12v7.814c0 .744.672 1.348 1.499 1.348H38.5v37.323zM8.054 14h23.892c.582 0 1.054.448 1.054 1s-.472 1-1.054 1H8.054C7.472 16 7 15.552 7 15s.472-1 1.054-1zM33 21c0 .552-.472 1-1.054 1H8.054C7.472 22 7 21.552 7 21s.472-1 1.054-1h23.892c.582 0 1.054.448 1.054 1zm0 6c0 .552-.472 1-1.054 1H8.054C7.472 28 7 27.552 7 27s.472-1 1.054-1h23.892c.582 0 1.054.448 1.054 1zm0 7c0 .552-.472 1-1.054 1H8.054C7.472 35 7 34.552 7 34s.472-1 1.054-1h23.892c.582 0 1.054.448 1.054 1z"/>
</svg>
