<svg xmlns="http://www.w3.org/2000/svg" width="28" height="21" viewBox="0 0 28 21">
    <g fill="#003189" fill-rule="evenodd">
        <path d="M17.712 6A8.5 8.5 0 1 0 4 15.977l-.422.412.422-.412A8.482 8.482 0 0 0 10.5 19a8.494 8.494 0 0 0 7.212-4h2.278a10.501 10.501 0 0 1-9.49 6C4.701 21 0 16.299 0 10.5S4.701 0 10.5 0c4.189 0 7.804 2.453 9.49 6h-2.278z"/>
        <rect width="3" height="17" x="14" y="2" rx="1.5" transform="rotate(-90 15.5 10.5)"/>
        <path d="M23.207 5.843l3.95 3.95a1 1 0 0 1 0 1.414l-3.95 3.95a1 1 0 0 1-1.707-.707v-7.9a1 1 0 0 1 1.707-.707z"/>
    </g>
</svg>
