<svg xmlns="http://www.w3.org/2000/svg" width="43" height="43" viewBox="0 0 43 43">
    <g fill="none" fill-rule="evenodd">
        <path stroke="#003189" stroke-width="1.98" d="M19.88 37H3.193C1.98 37 1 36 1 34.764V3.236C1 2 1.981 1 3.193 1h22.614C27.02 1 28 2 28 3.236v20.351"/>
        <path fill="#003189" d="M10 11a2 2 0 1 1-4 0 2 2 0 0 1 4 0"/>
        <path stroke="#003189" stroke-linecap="round" stroke-width="1.584" d="M12 11.5h12"/>
        <path fill="#003189" d="M10 20a2 2 0 1 1-4 0 2 2 0 0 1 4 0"/>
        <path stroke="#003189" stroke-linecap="round" stroke-width="1.584" d="M12 19.5h12"/>
        <path fill="#003189" d="M10 29a2 2 0 1 1-4 0 2 2 0 0 1 4 0"/>
        <path stroke="#003189" stroke-linecap="round" stroke-width="1.584" d="M12 29.5h2"/>
        <path fill="#003189" d="M27.109 31.85l-9.768-4.626 10.541 13.974 13.236-27.037z"/>
        <path stroke="#003189" stroke-linecap="round" stroke-linejoin="round" stroke-width="1.901" d="M17.343 27.224l10.539 13.974L41.118 14.16l-14.01 17.69z"/>
    </g>
</svg>
