<svg xmlns="http://www.w3.org/2000/svg" width="39" height="28" viewBox="0 0 39 28">
    <g fill="none" fill-rule="nonzero">
        <path fill="#FFF" stroke="#003189" d="M26.515 27.5h.5l-.5.5v-.5zm0 0V7.045c0-1.525-1.335-2.775-2.998-2.775h-6.563a1.4 1.4 0 0 1-1.004-.417l-2.382-2.438A3.11 3.11 0 0 0 11.344.5H3.497C1.835.5.5 1.75.5 3.242 1.483 18.777 2.716 27.5 3.497 27.5h23.018z"/>
        <path fill="#003189" d="M27.94 28H4c1.288 0 2.454-5.87 3.498-17.612C7.498 8.517 9.064 7 10.996 7H27.94c1.932 0 3.498 1.517 3.498 3.388-1.016 11.74-2.182 17.61-3.498 17.611z"/>
        <g>
            <path fill="#CF2128" stroke="#FFF" d="M38.5 11v4.709c0 4.047-2.147 7.709-5.459 9.286l-1.147.562-.22-.109-.822-.406c-3.257-1.612-5.35-5.24-5.352-9.237V10.5h13v.5z"/>
            <path fill="#FFF" d="M35.958 14.724l-.654-.679A.14.14 0 0 0 35.2 14a.134.134 0 0 0-.104.045l-4.533 4.61-1.65-1.665a.146.146 0 0 0-.103-.045.146.146 0 0 0-.104.045l-.661.668a.15.15 0 0 0 0 .214l2.08 2.1c.134.136.297.215.435.215.197 0 .367-.147.43-.207h.004l4.967-5.042c.052-.064.052-.158-.003-.214z"/>
        </g>
    </g>
</svg>
