<svg xmlns="http://www.w3.org/2000/svg" width="18" height="18" viewBox="0 0 18 18">
    <path fill="#1F3864" fill-rule="nonzero" d="M17.25 12.75a.75.75 0 0 1 .75.75v3.75a.75.75 0 0 1-.75.75H.75a.75.75 0 0 1-.75-.75V13.5a.75.75 0 0 1 1.5 0v3h15v-3a.75.75 0 0 1 .75-.75zM9 0a.75.75 0 0 1 .75.75v10.19l2.47-2.47a.75.75 0 0 1 1.06 1.06l-3.75 3.75v.001a.751.751 0 0 1-.055.049l-.027.02-.032.024-.032.02-.03.017-.035.017-.032.015-.034.012-.035.013-.034.008-.038.01-.04.006-.032.004a.755.755 0 0 1-.148 0c-.011 0-.022-.003-.033-.004l-.04-.007-.037-.009-.034-.008-.035-.013-.034-.012-.032-.015-.035-.017-.03-.017-.032-.02-.033-.024-.026-.02a.76.76 0 0 1-.055-.049L4.72 9.53A.75.75 0 0 1 5.78 8.47l2.47 2.47V.75A.75.75 0 0 1 9 0z"/>
</svg>
