<svg xmlns="http://www.w3.org/2000/svg" width="40" height="40" viewBox="0 0 40 40">
    <g fill="none" fill-rule="evenodd">
        <circle cx="20" cy="20" r="20" fill="#CF2128"/>
        <path fill="#FFF" fill-rule="nonzero" d="M26.73 11.189a2.762 2.762 0 0 0-3.89.34l-9.952 11.86a.613.613 0 0 0-.134.282l-.98 5.303a.613.613 0 0 0 .817.686l5.052-1.887c.1-.037.188-.1.256-.18l9.951-11.86a2.764 2.764 0 0 0-.34-3.89l-.78-.654zm-12.476 12.48l8.145-9.706 3.13 2.626-8.144 9.706-3.13-2.626zm-.474 1.204l2.501 2.099-3.104 1.16.603-3.259zm13.13-9.929l-.591.705-3.13-2.626.591-.705a1.534 1.534 0 0 1 2.161-.19l.78.655c.648.545.733 1.512.19 2.161z"/>
    </g>
</svg>
