<svg xmlns="http://www.w3.org/2000/svg" width="50" height="44" viewBox="0 0 50 44">
    <path fill="#003189" fill-rule="nonzero" d="M49.167 6.646H38.333v-.311C38.333 2.84 35.483 0 31.98 0H18.021c-3.504 0-6.354 2.841-6.354 6.335v.311H.833a.832.832 0 0 0-.833.83v28.662C0 40.032 3.178 43.2 7.083 43.2h35.834c3.906 0 7.083-3.168 7.083-7.062V7.477a.832.832 0 0 0-.833-.83zm-35.834-.311c0-2.577 2.103-4.673 4.688-4.673h13.958c2.585 0 4.688 2.096 4.688 4.673v.311H35v-.311a3.02 3.02 0 0 0-3.02-3.012H18.02A3.02 3.02 0 0 0 15 6.335v.311h-1.667v-.311zm20 0v.311H16.667v-.311c0-.745.607-1.35 1.354-1.35h13.958c.747 0 1.354.605 1.354 1.35zm15 29.803c0 2.978-2.43 5.4-5.416 5.4H7.083c-2.986 0-5.416-2.422-5.416-5.4V18.01c1.429 3.633 3.724 6.974 6.666 8.75v3.98c0 .458.374.83.834.83H15c.46 0 .833-.372.833-.83v-1.775c.255.013.507.04.762.04l16.667.072h.053c.283 0 .568-.01.852-.03v1.693c0 .458.373.83.833.83h5.833c.46 0 .834-.372.834-.83v-4.531c2.885-2.091 5.212-5.126 6.666-8.508v18.438zM10 29.908v-4.985h4.167v4.985H10zm25.833 0v-4.985H40v4.985h-4.167zm12.5-19.939c0 5.237-2.63 10.71-6.666 14.127v-.004a.832.832 0 0 0-.834-.83H35a.832.832 0 0 0-.833.83v3.284c-.302.02-.604.034-.899.04l-16.666-.072c-.257 0-.512-.027-.769-.042v-3.21a.832.832 0 0 0-.833-.83H9.167a.832.832 0 0 0-.834.83v.665c-4.146-3.128-6.666-9.845-6.666-14.86v-1.59h46.666V9.97z"/>
</svg>
