<svg xmlns="http://www.w3.org/2000/svg" width="44" height="42" viewBox="0 0 44 42">
    <g fill="none" fill-rule="evenodd">
        <path stroke="#003189" stroke-width="1.98" d="M20.184 37H3.221C1.994 37 1 36 1 34.764V3.236C1 2 1.994 1 3.221 1h22.91c1.227 0 2.22 1 2.22 2.236v21.928"/>
        <path fill="#003189" d="M8.324 10.2c0 .995-.797 1.8-1.783 1.8a1.792 1.792 0 0 1-1.784-1.8c0-.995.799-1.8 1.784-1.8a1.79 1.79 0 0 1 1.783 1.8"/>
        <path stroke="#003189" stroke-linecap="round" stroke-width="1.584" d="M11.703 11.2h11.892"/>
        <path fill="#003189" d="M8.324 18.6c0 .995-.797 1.8-1.783 1.8a1.792 1.792 0 0 1-1.784-1.8c0-.995.799-1.8 1.784-1.8a1.79 1.79 0 0 1 1.783 1.8"/>
        <path stroke="#003189" stroke-linecap="round" stroke-width="1.584" d="M11.703 19.6h11.892"/>
        <path fill="#003189" d="M8.324 28.2c0 .995-.797 1.8-1.783 1.8a1.792 1.792 0 0 1-1.784-1.8c0-.995.799-1.8 1.784-1.8a1.79 1.79 0 0 1 1.783 1.8"/>
        <path stroke="#003189" stroke-linecap="round" stroke-width="1.584" d="M11.703 29.2h7.73"/>
        <path fill="#003189" d="M23.605 27.4h15.438a1.2 1.2 0 0 1 1.2 1.2v12a1.2 1.2 0 0 1-1.2 1.2H23.605a1.2 1.2 0 0 1-1.2-1.2v-12a1.2 1.2 0 0 1 1.2-1.2zm1.179 2.4v2.4h3.567v-2.4h-3.567zm4.757 0v2.4h3.567v-2.4h-3.567zm4.756 0v2.4h3.568v-2.4h-3.568zm-9.513 3.6v2.4h3.567v-2.4h-3.567zm4.757 0v2.4h3.567v-2.4h-3.567zm4.756 0v2.4h3.568v-2.4h-3.568zM24.784 37v2.4h3.567V37h-3.567zm4.757 0v2.4h3.567V37h-3.567zm4.756 0v2.4h3.568V37h-3.568z"/>
    </g>
</svg>
