<svg xmlns="http://www.w3.org/2000/svg" width="81" height="81" viewBox="0 0 81 81">
    <g fill="none" fill-rule="evenodd">
        <path fill="#003189" d="M41.568 0H15.143c-.474 0-.857.384-.857.857v42.929c0 .473.383.857.857.857h34c.473 0 .857-.384.857-.857V8.466L41.568 0zm.396 2.679l5.357 5.357h-5.357V2.679zm6.697 40.164c0 .253-.23.46-.512.46H16.135c-.282 0-.51-.207-.51-.46V1.798c0-.253.228-.459.51-.459h24.213v6.977c0 .665.6 1.203 1.338 1.203h6.975v33.324zM44.643 21.43c0 .492-.26.892-.58.892H30.937c-.32 0-.579-.4-.579-.892 0-.493.26-.893.58-.893h13.127c.32 0 .579.4.579.893zm0-6.25c0 .492-.26.892-.58.892H30.937c-.32 0-.579-.4-.579-.892 0-.493.26-.893.58-.893h13.127c.32 0 .579.4.579.893zm0 11.607c0 .493-.26.893-.58.893H30.937c-.32 0-.579-.4-.579-.893s.26-.893.58-.893h13.127c.32 0 .579.4.579.893zm0 6.25c0 .493-.26.893-.58.893H30.937c-.32 0-.579-.4-.579-.893s.26-.893.58-.893h13.127c.32 0 .579.4.579.893z" transform="translate(14.5 19.125)"/>
        <path fill="#FFF" d="M0 7.143H30.357V37.5H0z" transform="translate(14.5 19.125)"/>
        <path fill="#FFF" stroke="#FFF" stroke-width=".5" d="M26.322 21.612l-1.781-1.636c-.225-.206-.353-.498-.353-.804v-6.557h-3.59v1.276c0 .43-.251.82-.643.995-.393.175-.85.1-1.167-.191l-3.967-3.641-11.5 10.558h1.666c.598 0 1.082.487 1.082 1.088v11.425h4.794v-6.839c0-.6.484-1.088 1.082-1.088h5.753c.598 0 1.082.488 1.082 1.088v6.839h4.793V22.7c0-.6.484-1.088 1.082-1.088h1.667z" transform="translate(14.5 19.125)"/>
        <g>
            <path fill="#003189" d="M27.214 11.9l-2.339-2.169V2.538c0-.457-.364-.829-.814-.829h-5.628c-.45 0-.814.371-.814.83v.46L14.795.38c-.545-.505-1.367-.505-1.912 0L.465 11.9c-.437.406-.581 1.03-.368 1.59.214.561.733.924 1.324.924h1.983v11.543c0 .458.365.829.814.829h6.807c.45 0 .814-.371.814-.83v-7.008h4v7.009c0 .458.365.829.814.829h6.807c.45 0 .814-.371.814-.829V14.414h1.984c.59 0 1.11-.363 1.323-.923.214-.561.07-1.185-.367-1.59z" transform="translate(14.5 19.125) translate(1.116 8.929)"/>
            <path fill="#FFF" stroke="#FFF" stroke-width=".5" d="M25.954 12.925l-2.215-1.878c-.225-.206-.353-.498-.353-.804l.027-7.07H19.09l-.002.748c0 .43-.252.82-.644.995-.392.174-.85.1-1.169-.193L13.84 1.518 1.7 12.925H3.87c.598 0 1.082.488 1.082 1.088v11.183h5.128l.031-6.653c0-.601.484-1.089 1.082-1.089h5.284c.598 0 1.082.488 1.082 1.09l-.03 6.652h4.927l-.016-11.183V13.9c-.003-.333.005-.457.065-.608.094-.24.302-.367.598-.367h2.85z" transform="translate(14.5 19.125) translate(1.116 8.929)"/>
        </g>
    </g>
</svg>
