<svg xmlns="http://www.w3.org/2000/svg" width="24" height="24" viewBox="0 0 24 24">
    <g fill="silver" fill-rule="evenodd">
        <path d="M12 0C5.383 0 0 5.383 0 12s5.383 12 12 12 12-5.383 12-12S18.617 0 12 0zm0 21.818c-5.414 0-9.818-4.404-9.818-9.818S6.586 2.182 12 2.182 21.818 6.586 21.818 12 17.414 21.818 12 21.818z"/>
        <path d="M12 5.09c-.802 0-1.454.654-1.454 1.456C10.546 7.348 11.198 8 12 8c.802 0 1.454-.652 1.454-1.454 0-.802-.652-1.455-1.454-1.455zM12 10.182c-.602 0-1.09.488-1.09 1.09v6.546c0 .603.488 1.091 1.09 1.091.602 0 1.09-.488 1.09-1.09v-6.546c0-.603-.488-1.091-1.09-1.091z"/>
    </g>
</svg>
