<svg xmlns="http://www.w3.org/2000/svg" width="30" height="38" viewBox="0 0 30 38">
    <g fill="none" fill-rule="evenodd">
        <path stroke="#003189" stroke-width="1.98" d="M26.726 37H3.274C2.017 37 1 36 1 34.764V3.236C1 2 2.017 1 3.274 1h23.452C27.983 1 29 2 29 3.236v31.528C29 36 27.983 37 26.726 37z"/>
        <path fill="#003189" d="M10 11a2 2 0 1 1-4 0 2 2 0 0 1 4 0"/>
        <path stroke="#003189" stroke-linecap="round" stroke-width="1.584" d="M12 11.5h12"/>
        <path fill="#003189" d="M10 20a2 2 0 1 1-4 0 2 2 0 0 1 4 0"/>
        <path stroke="#003189" stroke-linecap="round" stroke-width="1.584" d="M12 19.5h12"/>
        <path fill="#003189" d="M10 29a2 2 0 1 1-4 0 2 2 0 0 1 4 0"/>
        <path stroke="#003189" stroke-linecap="round" stroke-width="1.584" d="M12 29.5h12"/>
    </g>
</svg>
