<?xml version="1.0" encoding="UTF-8"?>
<svg width="39px" height="33px" viewBox="0 0 39 33" version="1.1" xmlns="http://www.w3.org/2000/svg" xmlns:xlink="http://www.w3.org/1999/xlink">
    <!-- Generator: Sketch 55.2 (78181) - https://sketchapp.com -->
    <title>Icônes/Générateur/Blue</title>
    <desc>Created with Sketch.</desc>
    <g id="Icônes/Générateur/Blue" stroke="none" stroke-width="1" fill="none" fill-rule="evenodd">
        <path d="M30,25 L37,25 C37.5522847,25 38,25.4477153 38,26 L38,31 C38,31.5522847 37.5522847,32 37,32 L30,32 C29.4477153,32 29,31.5522847 29,31 L29,26 C29,25.4477153 29.4477153,25 30,25 Z M16,25 L23,25 C23.5522847,25 24,25.4477153 24,26 L24,31 C24,31.5522847 23.5522847,32 23,32 L16,32 C15.4477153,32 15,31.5522847 15,31 L15,26 C15,25.4477153 15.4477153,25 16,25 Z M2,25 L9,25 C9.55228475,25 10,25.4477153 10,26 L10,31 C10,31.5522847 9.55228475,32 9,32 L2,32 C1.44771525,32 1,31.5522847 1,31 L1,26 C1,25.4477153 1.44771525,25 2,25 Z M30,13 L37,13 C37.5522847,13 38,13.4477153 38,14 L38,19 C38,19.5522847 37.5522847,20 37,20 L30,20 C29.4477153,20 29,19.5522847 29,19 L29,14 C29,13.4477153 29.4477153,13 30,13 Z M16,13 L23,13 C23.5522847,13 24,13.4477153 24,14 L24,19 C24,19.5522847 23.5522847,20 23,20 L16,20 C15.4477153,20 15,19.5522847 15,19 L15,14 C15,13.4477153 15.4477153,13 16,13 Z M2,13 L9,13 C9.55228475,13 10,13.4477153 10,14 L10,19 C10,19.5522847 9.55228475,20 9,20 L2,20 C1.44771525,20 1,19.5522847 1,19 L1,14 C1,13.4477153 1.44771525,13 2,13 Z M30,1 L37,1 C37.5522847,1 38,1.44771525 38,2 L38,7 C38,7.55228475 37.5522847,8 37,8 L30,8 C29.4477153,8 29,7.55228475 29,7 L29,2 C29,1.44771525 29.4477153,1 30,1 Z M16,1 L23,1 C23.5522847,1 24,1.44771525 24,2 L24,7 C24,7.55228475 23.5522847,8 23,8 L16,8 C15.4477153,8 15,7.55228475 15,7 L15,2 C15,1.44771525 15.4477153,1 16,1 Z M2,1 L9,1 C9.55228475,1 10,1.44771525 10,2 L10,7 C10,7.55228475 9.55228475,8 9,8 L2,8 C1.44771525,8 1,7.55228475 1,7 L1,2 C1,1.44771525 1.44771525,1 2,1 Z" id="Combined-Shape" stroke="#003189" stroke-width="2"></path>
    </g>
</svg>