<svg xmlns="http://www.w3.org/2000/svg" width="21" height="20" viewBox="0 0 21 20">
    <path fill="#003189" fill-rule="evenodd" d="M10.5 10.596c-2.6 0-4.708-2.372-4.708-5.298C5.792 1.24 7.9 0 10.5 0s4.709 1.24 4.709 5.298c0 2.926-2.109 5.298-4.709 5.298zm10.397 7.799a1.1 1.1 0 0 1-.09 1.086c-.22.325-.592.519-.995.519H1.188c-.403 0-.776-.194-.995-.52a1.1 1.1 0 0 1-.09-1.085l2.375-5.145c.109-.235.3-.43.537-.55l3.687-1.844a.246.246 0 0 1 .253.02 5.994 5.994 0 0 0 3.545 1.16c1.277 0 2.503-.402 3.545-1.16a.245.245 0 0 1 .253-.02l3.687 1.845c.237.119.428.314.537.55l2.375 5.144z"/>
</svg>
