<svg xmlns="http://www.w3.org/2000/svg" width="27" height="18" viewBox="0 0 27 18">
    <path fill="#1F3864" fill-rule="nonzero" d="M13.36.04c9.19 0 13.004 8.244 13.246 8.596a.64.64 0 0 1-.037.777c-.296.35-5.323 8.547-13.21 8.547C5.475 17.96.447 9.763.152 9.413a.642.642 0 0 1 0-.827C.446 8.236 5.474.04 13.36.04zm0 1.28C7.029 1.32 3.024 7.347 1.5 9c1.527 1.651 5.538 7.68 11.86 7.68 6.375 0 10.42-6.116 11.893-7.715C23.978 7.34 20.757 1.32 13.36 1.32zm0 2.56A5.125 5.125 0 0 1 18.48 9a5.125 5.125 0 0 1-5.12 5.12A5.125 5.125 0 0 1 8.24 9a5.125 5.125 0 0 1 5.12-5.12zm0 1.28A3.845 3.845 0 0 0 9.52 9a3.845 3.845 0 0 0 3.84 3.84A3.845 3.845 0 0 0 17.2 9a3.845 3.845 0 0 0-3.84-3.84z"/>
</svg>
