<svg xmlns="http://www.w3.org/2000/svg" width="18" height="20" viewBox="0 0 18 20">
    <path fill="#1F3864" fill-rule="evenodd" d="M15.48.939a2.762 2.762 0 0 0-3.89.34L1.638 13.14a.613.613 0 0 0-.133.282l-.982 5.303a.613.613 0 0 0 .818.686l5.053-1.887c.099-.037.187-.099.255-.18L16.6 5.483a2.764 2.764 0 0 0-.34-3.89L15.48.94zM3.005 13.419l8.144-9.706 3.13 2.627-8.144 9.706-3.13-2.627zm-.474 1.204l2.5 2.099-3.103 1.16.603-3.259zm13.13-9.928l-.592.705-3.13-2.627.591-.705a1.534 1.534 0 0 1 2.161-.19l.78.655c.649.546.733 1.512.19 2.162z"/>
</svg>
