<svg width="60" height="90" viewBox="0 0 60 60" fill="none" xmlns="http://www.w3.org/2000/svg">
<path d="M22.2179 20.846C22.2416 20.846 22.2416 20.846 22.2179 20.846C22.3129 20.7986 22.3604 20.7748 22.408 20.7273H22.3842C22.3367 20.7511 22.2891 20.7986 22.2179 20.846Z" fill="#1F356C"/>
<path d="M30.9387 17.9495L30.8912 17.9969C30.915 17.9969 30.9387 17.9732 30.9387 17.9495Z" fill="#1F356C"/>
<path fill-rule="evenodd" clip-rule="evenodd" d="M28.1823 20.9885L28.1823 20.9884C28.4437 20.7273 28.7051 20.4661 28.9427 20.1812C29.4179 19.6351 29.8932 19.1365 30.4397 18.6617C30.606 18.5192 30.7724 18.3768 30.9387 18.2818C30.9625 18.2581 30.9744 18.2225 30.9862 18.1868C30.9981 18.1512 31.01 18.1156 31.0338 18.0919C30.9338 18.1363 30.8494 18.1963 30.7635 18.2573C30.6658 18.3267 30.5662 18.3975 30.4397 18.448C30.3922 18.448 30.3447 18.4005 30.3922 18.353L30.3922 18.353C30.5585 18.2343 30.7249 18.1156 30.8674 17.9969H30.8437C30.7961 17.9969 30.7961 17.9494 30.7961 17.9019C30.2255 17.8107 29.8083 18.1796 29.4183 18.5245L29.3704 18.5667C29.301 18.6014 29.2315 18.5601 29.1899 18.5353C29.1745 18.5261 29.1629 18.5192 29.1565 18.5192C28.8072 18.6314 28.5038 18.8483 28.198 19.0668C27.9214 19.2645 27.6429 19.4636 27.3268 19.5877V19.4927C27.2342 19.5264 27.1415 19.569 27.0478 19.6121L27.0478 19.6121L27.0478 19.6121L27.0478 19.6121L27.0477 19.6121L27.0477 19.6121C26.8771 19.6906 26.703 19.7707 26.5189 19.8013C26.2151 19.8728 25.9382 19.8636 25.6679 19.8547L25.6679 19.8547C25.5788 19.8517 25.4904 19.8488 25.4021 19.8488C24.8556 19.8963 24.309 20.015 23.7625 20.1337C23.7524 20.1337 23.7466 20.1337 23.7414 20.1356C23.7344 20.138 23.7286 20.1438 23.715 20.1575L23.715 20.1575C23.4298 20.2287 23.1447 20.3474 22.8833 20.4899L22.8595 20.5136L22.7882 20.5849C22.7694 20.6036 22.7506 20.6233 22.7317 20.6432L22.7316 20.6433L22.7316 20.6433C22.6546 20.7241 22.5746 20.8079 22.4793 20.846C22.2573 20.9569 22.0786 21.1254 21.8981 21.2954L21.8981 21.2954C21.8468 21.3438 21.7953 21.3923 21.7427 21.4396C21.7189 21.4633 21.6952 21.4633 21.6714 21.4633C21.4338 21.7008 21.1961 21.9382 20.9585 22.1519C20.9348 22.1756 20.8635 22.1756 20.8159 22.1756C20.8159 22.1637 20.8219 22.1578 20.8278 22.1519C20.8338 22.1459 20.8397 22.14 20.8397 22.1281C20.8635 22.0925 20.8813 22.0628 20.8991 22.0331C20.9169 22.0035 20.9348 21.9738 20.9585 21.9382L21.1011 21.7245C21.1279 21.6887 21.1514 21.653 21.174 21.6185L21.1741 21.6185C21.2116 21.5614 21.2468 21.5077 21.2912 21.4633C21.315 21.4396 21.315 21.4158 21.2912 21.4158C21.2674 21.3921 21.2437 21.3921 21.2199 21.3921C21.4338 21.1784 21.7189 20.9885 21.9803 20.8223C21.9565 20.8223 21.909 20.7985 21.9328 20.7748C21.9447 20.751 21.9565 20.7332 21.9684 20.7154C21.9803 20.6976 21.9922 20.6798 22.0041 20.6561C22.0041 20.646 22.0041 20.6402 22.0059 20.635C22.0084 20.628 22.0142 20.6222 22.0278 20.6086C22.0278 20.5967 22.0219 20.5908 22.0159 20.5849C22.01 20.5789 22.0041 20.573 22.0041 20.5611L21.7902 20.7036C21.7506 20.7352 21.7163 20.7774 21.682 20.8196C21.6133 20.9041 21.5447 20.9885 21.4338 20.9885H21.3625C21.3387 20.9885 21.315 20.9885 21.315 20.9647V20.941C21.315 20.9291 21.3209 20.9232 21.3268 20.9172C21.3328 20.9113 21.3387 20.9054 21.3387 20.8935C21.3387 20.8816 21.3447 20.8757 21.3506 20.8698C21.3565 20.8638 21.3625 20.8579 21.3625 20.846C21.3625 20.846 21.3625 20.8223 21.3862 20.8223C21.3862 20.7985 21.41 20.7748 21.41 20.7748C21.41 20.7629 21.416 20.757 21.4219 20.751C21.4278 20.7451 21.4338 20.7392 21.4338 20.7273C21.4575 20.7036 21.4813 20.6561 21.4813 20.6323C21.4813 20.6205 21.4872 20.6145 21.4932 20.6086C21.4991 20.6027 21.5051 20.5967 21.5051 20.5849C21.5169 20.573 21.5229 20.5611 21.5288 20.5492C21.5348 20.5374 21.5407 20.5255 21.5526 20.5136C21.5763 20.4661 21.5526 20.4424 21.5288 20.4424C21.6001 20.3237 21.7189 20.2525 21.8377 20.1812H21.814C21.8971 20.1337 21.9862 20.0863 22.0754 20.0388L22.0755 20.0387C22.1646 19.9912 22.2536 19.9438 22.3367 19.8963L22.408 19.8251C22.1466 19.9201 21.9328 20.0388 21.6952 20.1812C21.6952 20.1812 21.6476 20.205 21.6239 20.2287C21.6239 20.2287 21.5763 20.2525 21.5051 20.1812V20.1575C21.5341 20.0995 21.5984 20.0593 21.6604 20.0205L21.6604 20.0205C21.7 19.9957 21.7387 19.9716 21.7664 19.9438C21.814 19.9438 21.8615 19.9438 21.8615 19.9913C22.7659 19.2951 23.8737 19.1349 24.9831 18.9745H24.9831L24.9832 18.9745C25.6519 18.8778 26.3211 18.781 26.9466 18.5667C26.9882 18.539 27.0278 18.5113 27.0666 18.4842C27.1606 18.4184 27.2496 18.356 27.3506 18.3056C27.4618 18.2562 27.5666 18.1747 27.6783 18.0878C27.7814 18.0076 27.8905 17.9228 28.0159 17.8544C28.3724 17.5933 28.6338 17.2609 28.7763 16.8335C28.7763 16.786 28.7288 16.7385 28.7288 16.7385C28.1348 17.3559 27.4694 17.8544 26.7565 18.2106C26.0773 18.5669 25.3617 18.6201 24.6444 18.6734C24.3579 18.6947 24.0711 18.716 23.7862 18.7567C23.8338 18.6617 23.9288 18.6617 24.0001 18.6617C24.0001 18.5373 24.0725 18.4854 24.1542 18.4268C24.1661 18.4182 24.1781 18.4096 24.1902 18.4005H24.3328C24.3565 18.4005 24.3684 18.3768 24.3803 18.353C24.3922 18.3293 24.4041 18.3056 24.4278 18.3056C24.5229 18.3056 24.6655 18.2581 24.6179 18.2581C24.5451 18.161 24.4412 18.2003 24.3285 18.243C24.2206 18.2838 24.1047 18.3277 24.0001 18.2581C24.0458 18.2124 24.0586 18.1612 24.07 18.1152C24.0824 18.0654 24.0933 18.0216 24.1427 17.9969H24.3328C24.3328 17.9019 24.4278 17.807 24.4278 17.807C24.812 17.5739 25.1882 17.3725 25.5565 17.1754C25.8261 17.0311 26.0915 16.8891 26.3526 16.7385C26.2963 16.7385 26.2512 16.7607 26.2084 16.7817C26.1427 16.814 26.0825 16.8435 25.9961 16.786C26.0437 16.786 26.0437 16.7504 26.0437 16.7148C26.0437 16.6792 26.0437 16.6436 26.0912 16.6436C26.3829 16.5603 26.6421 16.4365 26.9068 16.31C27.095 16.2201 27.2859 16.1289 27.4932 16.05C27.4269 16.05 27.3693 16.0673 27.3144 16.0838C27.2116 16.1147 27.118 16.1428 26.9942 16.05C27.0284 16.0329 27.0565 16.0096 27.084 15.9868C27.1328 15.9464 27.1796 15.9076 27.2556 15.9076V15.7651C27.2556 15.7176 27.3031 15.7176 27.3506 15.7176C27.3031 15.7176 27.2556 15.6701 27.2556 15.6701C27.2797 15.6218 27.3285 15.6104 27.3799 15.5983C27.4297 15.5866 27.4819 15.5743 27.5169 15.5277C27.4694 15.5277 27.3744 15.5277 27.3744 15.4802C27.5032 15.3085 27.6903 15.2726 27.9004 15.2323C27.9229 15.2279 27.9455 15.2236 27.9684 15.219C27.9447 15.1715 27.8971 15.1715 27.8556 15.1715C27.814 15.1715 27.7783 15.1715 27.7783 15.124C27.7783 15.0766 27.8258 15.0766 27.8734 15.0766H27.7783C27.7046 15.0397 27.7166 14.9744 27.7258 14.9248C27.7284 14.9104 27.7308 14.8973 27.7308 14.8866C27.9003 14.6864 27.9599 14.4463 28.0198 14.205C28.0522 14.0743 28.0847 13.9433 28.1348 13.8182C28.0872 13.8182 28.0397 13.8182 28.0397 13.7707C27.626 14.2276 26.9929 14.4053 26.378 14.578C26.3218 14.5938 26.2657 14.6095 26.21 14.6255H25.9011C25.6872 14.7204 25.3546 14.7204 25.1407 14.578C25.0252 14.5203 24.9535 14.4538 24.8724 14.3785C24.8201 14.33 24.7638 14.2777 24.6892 14.2218C24.3328 14.0081 23.9763 13.8182 23.5724 13.6757C22.4556 13.3196 21.2912 13.1297 20.1268 13.1772C20.4395 13.0135 20.7709 12.9431 21.1033 12.8724C21.3014 12.8303 21.5 12.7881 21.6952 12.726C21.8408 12.6851 21.9848 12.6416 22.128 12.5982L22.128 12.5982C22.7322 12.4154 23.3232 12.2365 23.9763 12.2749C23.8804 12.243 23.7738 12.254 23.6709 12.2647C23.6208 12.2698 23.5715 12.2749 23.5249 12.2749C23.0594 12.2392 22.5805 12.3381 22.0881 12.4399C21.9269 12.4732 21.7642 12.5068 21.6001 12.5361C21.3744 12.5836 21.1605 12.6489 20.9466 12.7142C20.7328 12.7795 20.5189 12.8448 20.2932 12.8922C20.1964 12.9274 20.116 12.9853 20.0373 13.0419C19.9035 13.1383 19.7749 13.2308 19.5803 13.2009V13.0584C20.0318 12.5124 20.5783 11.99 21.2912 11.9425C21.9735 11.8222 22.622 11.9051 23.2937 11.991L23.2938 11.991C23.4174 12.0068 23.5419 12.0227 23.6674 12.0375C24.1058 12.0725 24.5054 12.1593 24.9234 12.2501L24.9235 12.2501L24.9236 12.2501L24.9236 12.2501L24.9237 12.2501L24.9238 12.2502C25.0721 12.2824 25.2228 12.3151 25.3783 12.3462C25.4931 12.3462 25.56 12.4488 25.6267 12.5512C25.6843 12.6396 25.7418 12.7278 25.8298 12.7498C25.9345 12.7878 26.0431 12.7954 26.1524 12.803C26.3159 12.8144 26.4811 12.8259 26.6377 12.9397C26.6377 12.9071 26.6321 12.8746 26.6267 12.8429L26.6267 12.8429C26.6163 12.7824 26.6065 12.7253 26.6377 12.6786C26.7449 12.5715 26.8595 12.6002 26.9732 12.6286C27.0613 12.6506 27.1488 12.6725 27.2318 12.6311C27.4718 12.4872 27.2485 12.2571 27.0189 12.0207C26.9076 11.9061 26.7949 11.7899 26.7328 11.6814C26.7328 11.6339 26.7803 11.5864 26.7803 11.5864C26.8928 11.6838 26.9959 11.786 27.0984 11.8877L27.0984 11.8877C27.3207 12.1081 27.5407 12.3261 27.8496 12.4886C28.0635 12.5836 28.61 12.7023 28.515 12.4411C28.3569 12.0727 28.0692 11.7561 27.7763 11.4339C27.6728 11.3201 27.5687 11.2056 27.4694 11.0878V10.8979C27.3998 10.8979 27.3812 10.8724 27.3576 10.8401L27.3575 10.8401C27.3489 10.8283 27.3396 10.8156 27.3268 10.8029V10.613C27.1993 10.5492 27.1787 10.4534 27.1574 10.3542C27.147 10.3056 27.1364 10.2562 27.113 10.2093C27.0336 10.0904 27.0279 9.93463 27.022 9.77487C27.0173 9.64764 27.0125 9.51786 26.9704 9.40208C26.8754 9.14091 26.8278 8.90348 26.7803 8.64231C26.7325 8.38762 26.682 8.14359 26.6325 7.90398L26.6325 7.90386L26.6324 7.90369L26.6324 7.90367C26.5342 7.42863 26.4395 6.97091 26.3763 6.48173C26.3037 5.8283 26.6338 5.28587 26.9738 4.72715C27.0785 4.55504 27.1842 4.38137 27.2793 4.20244C27.5882 3.65636 27.9447 3.13403 28.5387 2.77789C28.6813 2.23181 29.0377 1.7807 29.3942 1.35333C29.7506 0.925962 30.3447 0.641051 30.7724 0.45111C31.3902 0.166198 31.9605 0 31.9605 0H0.974365V23.7426H23.0021C23.5837 23.3229 24.1654 23.0568 24.8516 22.743L24.8516 22.7429L24.8519 22.7428C25.1749 22.5951 25.5209 22.4368 25.9011 22.2468C26.4714 22.0094 27.7546 21.4158 28.1823 20.9885ZM21.2912 17.7595C21.2674 17.7595 21.2392 17.7624 21.211 17.7654C21.1263 17.7743 21.0417 17.7832 21.0773 17.712C21.1102 17.5643 21.2678 17.5187 21.4249 17.4733C21.4951 17.453 21.5651 17.4327 21.6239 17.4033C21.6437 17.3935 21.6645 17.3815 21.6859 17.3692C21.7673 17.3225 21.8575 17.2708 21.9328 17.3084C21.9868 17.3893 22.0485 17.4089 22.1091 17.4282C22.1552 17.4429 22.2007 17.4573 22.2417 17.4983C22.0663 17.659 21.8639 17.6759 21.6622 17.6927C21.536 17.7033 21.4101 17.7138 21.2912 17.7595ZM14.3526 16.6911C14.3526 16.7385 14.4001 16.786 14.4001 16.786C15.4932 15.5752 16.4674 14.5305 17.8694 13.6757C17.9058 13.6576 17.8934 13.6742 17.8749 13.699C17.8452 13.7389 17.7997 13.8 17.9169 13.7707C18.384 13.654 18.5961 13.2507 18.8011 12.8607C18.8464 12.7745 18.8914 12.689 18.9387 12.6073C19.1469 12.2606 19.4443 12.0435 19.7456 11.8236L19.7456 11.8235L19.7456 11.8235L19.7457 11.8235L19.7457 11.8235C19.9602 11.6669 20.1767 11.5088 20.3645 11.3015C20.3645 11.349 20.3645 11.3965 20.3169 11.4439C20.3645 11.4914 20.412 11.4914 20.4595 11.4914C20.536 11.4437 20.6164 11.4228 20.6944 11.4025C20.8102 11.3725 20.9209 11.3438 21.006 11.2303C20.6496 11.0878 20.1981 11.0403 19.8417 11.1828C18.8912 11.6339 18.0833 12.3462 17.3229 13.1534C16.8714 13.652 16.3961 14.1031 15.8021 14.4118C15.3744 15.219 14.9466 15.9313 14.3526 16.6911ZM18.1308 13.8182C18.107 13.8657 18.0833 13.8894 18.0595 13.9132C18.0357 13.9369 18.012 13.9607 17.9882 14.0081C17.9407 14.1031 17.8932 14.1506 17.7981 14.1981C17.7506 14.1981 17.7031 14.1981 17.7031 14.1506C17.7506 13.9607 17.8932 13.7945 18.0595 13.747C18.1308 13.7232 18.1308 13.7707 18.1308 13.8182ZM20.1031 20.6798C20.1506 20.6323 20.1981 20.5848 20.2219 20.5374C20.2694 20.4424 20.0318 20.4661 19.9605 20.5136C19.913 20.5374 19.8892 20.5611 19.8655 20.6086C19.8179 20.6798 19.7466 20.751 19.6754 20.7985C19.6159 20.846 19.5625 20.8994 19.509 20.9529C19.4556 21.0063 19.4021 21.0597 19.3427 21.1072C19.2714 21.1784 19.5328 21.2022 19.5803 21.1547C19.6128 21.106 19.6564 21.0684 19.6959 21.0343C19.7142 21.0185 19.7316 21.0035 19.7466 20.9885H19.8179C19.9367 20.941 20.0556 20.846 20.1506 20.751C20.1981 20.7273 20.1506 20.6798 20.1031 20.6798L20.1031 20.6798ZM19.414 20.1812C19.2239 20.2999 19.0575 20.4187 18.8912 20.5374C18.7716 20.6121 18.6425 20.668 18.5159 20.7228C18.4413 20.7551 18.3676 20.7871 18.2971 20.8223C18.2734 20.7985 18.2496 20.7985 18.2259 20.7985C18.0595 20.8935 17.9169 21.0122 17.7744 21.1547L17.7031 21.2259L17.6318 21.2971L17.5367 21.3921C17.5288 21.4 17.5235 21.4079 17.5183 21.4158C17.5077 21.4317 17.4971 21.4475 17.4655 21.4633C17.4417 21.4871 17.3704 21.4871 17.3704 21.4396C17.3585 21.4515 17.3466 21.4574 17.3348 21.4633C17.3229 21.4693 17.311 21.4752 17.2991 21.4871C17.2872 21.4989 17.2754 21.5049 17.2635 21.5108C17.2516 21.5167 17.2397 21.5227 17.2278 21.5346H17.2041H17.1803C17.1565 21.5583 17.1268 21.582 17.0971 21.6058C17.0674 21.6295 17.0377 21.6533 17.014 21.677C16.9898 21.7011 16.9657 21.7237 16.9419 21.746C16.8722 21.8112 16.8058 21.8734 16.7526 21.9619V21.9857L16.7288 22.0094C16.7288 22.0094 16.7288 22.0331 16.7051 22.0331C16.7051 22.045 16.6991 22.051 16.6932 22.0569C16.6872 22.0628 16.6813 22.0688 16.6813 22.0806C16.6813 22.0806 16.6575 22.1044 16.6338 22.1044L16.61 22.0806C16.61 22.0806 16.61 22.0569 16.5862 22.0569C16.5744 22.045 16.5684 22.0331 16.5625 22.0213C16.5565 22.0094 16.5506 21.9975 16.5387 21.9857V21.9619C16.5862 21.9144 16.6338 21.867 16.6813 21.7957C16.6904 21.7867 16.696 21.7776 16.7008 21.7698C16.7085 21.7573 16.7141 21.7482 16.7288 21.7482C16.7407 21.7364 16.7526 21.7186 16.7645 21.7008C16.7763 21.6829 16.7882 21.6651 16.8001 21.6533C16.8001 21.6414 16.806 21.6355 16.812 21.6295C16.8179 21.6236 16.8239 21.6177 16.8239 21.6058C16.8476 21.5702 16.8714 21.5405 16.8952 21.5108C16.9189 21.4811 16.9427 21.4515 16.9664 21.4158L16.9902 21.3921C17.0021 21.3802 17.014 21.3624 17.0259 21.3446C17.0377 21.3268 17.0496 21.309 17.0615 21.2971C17.0762 21.2825 17.0818 21.2678 17.0895 21.2475C17.0943 21.235 17.0999 21.2203 17.109 21.2022V21.1784C17.1181 21.1603 17.1237 21.1456 17.1285 21.1331C17.1362 21.1128 17.1419 21.0981 17.1565 21.0834V21.0597C17.1565 21.0496 17.1565 21.0438 17.1584 21.0387C17.1608 21.0317 17.1666 21.0259 17.1803 21.0122C17.1803 20.9885 17.1803 20.9647 17.2041 20.941V20.9172C17.2516 20.8223 17.3229 20.751 17.3942 20.6798H17.3704C17.2991 20.7273 17.2516 20.7748 17.2041 20.8223C17.1565 20.8698 17.0615 20.7985 17.1328 20.751C17.1659 20.7345 17.1875 20.7064 17.2056 20.6829C17.2134 20.6726 17.2206 20.6633 17.2278 20.6561C17.2508 20.6332 17.2737 20.6078 17.2974 20.5815C17.3475 20.5262 17.401 20.467 17.4655 20.4187C17.513 20.3712 17.5605 20.3474 17.608 20.3237L17.6318 20.2999C17.6437 20.2762 17.6615 20.2584 17.6793 20.2406C17.6971 20.2228 17.715 20.205 17.7268 20.1812C17.9874 19.9354 18.3625 19.8393 18.7394 19.7427C18.9814 19.6807 19.2241 19.6185 19.4377 19.5164C19.5572 19.4634 19.6988 19.4844 19.8379 19.505C19.9478 19.5213 20.0562 19.5374 20.1506 19.5164C20.2932 19.5164 20.412 19.5164 20.5546 19.6114C20.2113 19.6719 19.9023 19.8696 19.5839 20.0734C19.5276 20.1094 19.4711 20.1456 19.414 20.1812ZM20.3821 17.0196C20.3442 17.0239 20.3201 17.0266 20.3407 17.0472C20.4833 17.1897 20.7447 17.1422 20.911 16.9997C21.0536 16.9047 21.1724 16.9047 21.3625 16.9047C21.41 16.9047 21.41 16.8098 21.41 16.7623C21.5526 16.8098 21.6239 16.8098 21.7664 16.8098C21.813 16.7994 21.8595 16.7891 21.9059 16.7789C22.9247 16.5532 23.901 16.3369 24.8556 15.8601C23.8594 15.0882 22.6372 14.7508 21.427 14.4167C21.2226 14.3602 21.0185 14.3039 20.816 14.2456C20.8644 14.2456 20.9101 14.262 20.9549 14.2781C21.042 14.3095 21.1258 14.3396 21.2199 14.2456C21.1081 14.1586 20.9767 14.1432 20.8462 14.1278C20.7273 14.1138 20.609 14.0998 20.507 14.0319C20.5177 14.0319 20.5308 14.0343 20.5452 14.0369C20.5949 14.046 20.6603 14.058 20.6971 13.9844C20.4703 13.8786 20.2435 13.8402 20.0167 13.8017C19.8871 13.7797 19.7574 13.7578 19.6278 13.7232C19.8417 13.6757 19.9843 13.4858 19.9843 13.2721C19.9843 13.2246 19.8892 13.2246 19.8417 13.2246C19.3189 13.5095 18.9387 13.9844 18.7249 14.578C18.9375 14.6994 19.1598 14.685 19.3732 14.6712C19.4937 14.6634 19.6114 14.6558 19.7229 14.6729C19.6159 14.7798 19.4689 14.8065 19.3219 14.8332C19.2729 14.8421 19.2239 14.851 19.1763 14.8629C19.0575 14.8866 18.915 14.9816 18.9625 15.0766C18.9862 15.124 19.01 15.1478 19.0575 15.1478C18.9625 15.1953 18.8674 15.2428 18.7724 15.314C18.9073 15.4151 19.0303 15.3966 19.1582 15.3773C19.2106 15.3695 19.2637 15.3615 19.3189 15.3615C19.3189 15.4248 19.3612 15.4459 19.4034 15.467C19.4245 15.4775 19.4457 15.4881 19.4615 15.5039C19.2476 15.5989 19.0575 15.7651 19.01 15.9076C18.9532 16.0496 18.8538 16.1321 18.7526 16.2162C18.6846 16.2727 18.6158 16.3298 18.5585 16.4061V16.5486C18.4048 16.6861 18.2455 16.807 18.0882 16.9264C17.7837 17.1577 17.4866 17.3832 17.2516 17.712C17.2991 17.712 17.2991 17.7595 17.2991 17.807C17.2607 17.855 17.2106 17.8913 17.1614 17.927C17.089 17.9796 17.0185 18.0308 16.9902 18.1156C16.9902 18.1631 16.9902 18.2106 17.0377 18.2106C17.3164 18.122 17.5613 17.9659 17.8049 17.8107C18.0182 17.6748 18.2305 17.5395 18.4635 17.4508C18.6566 17.3994 18.8288 17.3131 18.9951 17.2297C19.1359 17.1592 19.2724 17.0907 19.414 17.0472C19.5209 17.0235 19.6456 16.9878 19.7704 16.9522C19.8952 16.9166 20.0199 16.881 20.1268 16.8573C20.1268 16.9047 20.1268 16.9522 20.1744 16.9522H20.5308C20.5039 17.006 20.4314 17.0141 20.3821 17.0196Z" fill="#070091"/>
<path fill-rule="evenodd" clip-rule="evenodd" d="M66.511 0.0473633H40.9664C40.9664 0.0473633 41.0139 0.0473633 41.204 0.166076C41.4179 0.284789 41.6793 0.427245 41.8456 0.498473C42.1783 0.664671 42.4872 0.878355 42.7011 1.21075C42.7961 1.35321 42.9149 1.61438 42.8436 1.80432C42.7486 2.018 42.7011 2.39788 42.4872 2.46911C42.2258 2.61157 41.8694 2.61157 41.5367 2.56408C41.3466 2.56408 41.1803 2.5166 40.9902 2.46911C41.6555 2.73028 42.2971 3.06268 42.7486 3.67998C42.7961 3.77495 42.9625 3.82244 43.1526 3.82244C43.2001 3.82244 43.2001 3.91741 43.2001 3.9649C43.105 4.05987 43.01 4.10735 43.0575 4.22606H43.2001C43.4139 4.13109 43.3902 3.67998 43.6991 3.82244C43.913 3.9649 44.008 4.27355 43.8892 4.48723C43.6991 4.67717 43.5328 4.79589 43.3427 4.93834C43.2951 5.03331 43.2951 5.15203 43.3427 5.247C43.4852 5.43694 43.5328 5.60314 43.5565 5.79308C43.6991 6.10173 43.7466 6.45787 43.8654 6.79027C44.0555 7.45506 44.2219 8.1436 44.1743 8.80839C44.1743 9.16453 43.9842 9.47318 44.1268 9.82932C44.2219 10.1855 44.4357 10.4466 44.6258 10.779C44.8159 11.0402 44.9823 11.2301 45.1248 11.4913C45.3862 11.9424 45.8852 12.3935 45.6714 12.9159C45.5288 13.2245 45.0535 13.177 44.7209 13.367C44.4595 13.5807 44.6733 13.9605 44.8159 14.1742C45.0298 14.5778 44.5545 14.839 44.2219 14.9815C44.3169 15.1239 44.4832 15.0764 44.5308 15.1714C44.5783 15.3851 44.7922 15.5276 44.6733 15.765C44.4832 16.0261 43.9605 16.1686 44.2219 16.5722C44.412 16.8809 44.2932 17.237 44.1743 17.5694C44.0318 17.973 43.6753 18.163 43.3664 18.2342C43.105 18.3292 42.7724 18.3292 42.511 18.2817C42.4159 18.2342 42.3209 18.1867 42.2496 18.1867C41.4892 18.0918 40.7288 17.8781 39.9684 17.8781C39.7545 17.9256 39.5169 17.973 39.3506 18.0443C39.1367 18.1867 38.9704 18.3529 38.804 18.5191C38.7803 18.5666 38.7328 18.5903 38.709 18.6378C38.6852 18.6616 38.6615 18.6853 38.6615 18.7091C38.6377 18.7328 38.6377 18.7328 38.6139 18.7565C38.4714 18.9227 38.3763 19.0889 38.2575 19.2789C38.2575 19.3026 38.2337 19.3026 38.2337 19.3026C38.2337 19.3264 38.21 19.3501 38.1862 19.3739C38.0436 19.635 37.9248 19.9199 37.8535 20.2048C37.5446 21.2258 37.6872 22.1043 37.9011 22.3179C37.9486 22.3654 39.3743 22.8165 40.3724 23.2676C40.8476 23.4813 41.1565 23.6238 41.4417 23.8137H66.5347V0.0473633H66.511Z" fill="#E10010"/>
<path d="M42.4871 8.68956C42.6772 8.73705 42.9386 8.73705 42.9386 8.83202C42.8435 9.18816 42.3208 9.28313 42.0356 9.63927H41.893C41.7505 9.73424 41.798 9.94792 41.6792 9.94792C41.5366 9.90043 41.4178 9.94792 41.2752 9.9954C41.4653 10.1853 41.6792 10.3041 41.9406 10.2566C41.9881 10.2566 42.0831 10.3515 42.0831 10.4465C42.0831 10.4465 42.1307 10.4465 42.1782 10.399C42.2257 10.399 42.2732 10.399 42.2732 10.4465V10.6365C42.1307 10.8264 41.9168 10.7314 41.7267 10.7789C42.0831 10.8739 42.4396 10.8739 42.7722 10.7789C43.0336 10.6839 42.7722 10.2328 42.9623 10.0191C42.8673 10.0191 42.9623 9.87669 42.8673 9.87669C42.9623 9.78172 43.0574 9.66301 43.1287 9.61552C43.2237 9.61552 43.3425 9.56804 43.3901 9.47307C43.3901 9.3781 43.2 9.33061 43.2475 9.25938C43.5089 9.06944 43.7465 8.80827 43.6515 8.5471C43.6039 8.40465 43.2475 8.40465 43.0336 8.30968C42.8198 8.21471 42.5346 8.30968 42.2732 8.35716C42.0594 8.35716 41.8217 8.49962 41.6079 8.5471C41.299 8.64208 41.0138 8.80827 40.7524 8.99821C41.0614 8.85576 41.3703 8.80827 41.7267 8.73705C41.9881 8.68956 42.2019 8.64208 42.4871 8.68956Z" fill="#808080"/>
  <text xml:space="preserve" text-anchor="start" font-family="Marianne" font-weight="bold" font-size="24" id="svg_1" y="50" x="5" stroke-width="0" stroke="#000" fill="rgb(31, 56, 100)">DNC</text>

</svg>
